<?xml version="1.0" encoding="UTF-8"?>
<svg version="1.1" xmlns="http://www.w3.org/2000/svg" width="163" height="170">
<path d="M0 0 C53.79 0 107.58 0 163 0 C163 56.1 163 112.2 163 170 C109.21 170 55.42 170 0 170 C0 113.9 0 57.8 0 0 Z " fill="#3B9794" transform="translate(0,0)"/>
<path d="M0 0 C6.43758379 5.22920012 11.45166023 11.65322606 12.98046875 19.9609375 C13.5206969 32.56045205 9.18398005 45.79365171 5.2109375 57.62109375 C4.29545177 60.41371286 4.29545177 60.41371286 4.4765625 64.22265625 C6.28061386 65.88695681 6.28061386 65.88695681 8.6640625 67.22265625 C14.40916795 70.72879025 18.63359658 73.93575538 22.2265625 79.72265625 C22.81953125 80.66109375 23.4125 81.59953125 24.0234375 82.56640625 C27.88632988 89.62760738 27.3825991 98.50269529 25.8984375 106.234375 C21.64427859 119.78967224 9.59268037 128.40001342 -2.484375 134.7890625 C-5.13536356 136.03287366 -7.79503785 137.16067916 -10.5234375 138.22265625 C-11.25820312 138.51785156 -11.99296875 138.81304687 -12.75 139.1171875 C-32.14660886 146.2762995 -57.4235917 145.49673593 -76.4609375 137.34765625 C-77.82129352 136.65128353 -79.17513378 135.94208697 -80.5234375 135.22265625 C-81.93109375 134.57683594 -81.93109375 134.57683594 -83.3671875 133.91796875 C-96.88120577 127.60460163 -108.52581386 118.13714309 -114.5234375 104.22265625 C-117.25473863 96.02875287 -116.4851623 87.1238694 -112.7109375 79.47265625 C-110.97107947 76.32802395 -109.32064441 73.52173042 -106.5234375 71.22265625 C-105.8634375 71.22265625 -105.2034375 71.22265625 -104.5234375 71.22265625 C-103.3593892 72.63994358 -102.19784399 74.05936404 -101.04931641 75.48925781 C-98.29268238 78.62079407 -95.01796305 81.07472797 -91.7109375 83.59765625 C-90.97552734 84.16637451 -90.24011719 84.73509277 -89.48242188 85.32104492 C-83.83741209 89.55420071 -78.02998371 92.8055627 -71.43823242 95.33544922 C-69.5234375 96.1484375 -69.5234375 96.1484375 -66.5234375 98.22265625 C-65.72038092 100.94644631 -65.66374308 103.35516105 -65.5234375 106.22265625 C-64.5334375 106.71765625 -64.5334375 106.71765625 -63.5234375 107.22265625 C-63.8534375 106.56265625 -64.1834375 105.90265625 -64.5234375 105.22265625 C-64.5634295 103.22305613 -64.56690549 101.22218383 -64.5234375 99.22265625 C-63.70359375 99.64417969 -62.88375 100.06570312 -62.0390625 100.5 C-60.96140625 101.04785156 -59.88375 101.59570312 -58.7734375 102.16015625 C-57.17242187 102.97806641 -57.17242187 102.97806641 -55.5390625 103.8125 C-48.31003076 107.1929151 -40.24801476 107.34151179 -32.6484375 104.91015625 C-29.36889231 103.67812675 -26.48279272 102.1058823 -23.5234375 100.22265625 C-22.8634375 100.22265625 -22.2034375 100.22265625 -21.5234375 100.22265625 C-21.5234375 99.56265625 -21.5234375 98.90265625 -21.5234375 98.22265625 C-20.8634375 98.22265625 -20.2034375 98.22265625 -19.5234375 98.22265625 C-19.5234375 100.86265625 -19.5234375 103.50265625 -19.5234375 106.22265625 C-19.2346875 105.33578125 -18.9459375 104.44890625 -18.6484375 103.53515625 C-17.68948646 100.71157819 -16.63821906 97.98670368 -15.5234375 95.22265625 C-11.58313198 85.30541099 -7.77436489 75.39143388 -4.5234375 65.22265625 C-4.19214844 64.28292969 -3.86085938 63.34320313 -3.51953125 62.375 C-2.39067137 58.80249051 -1.6103931 55.20753948 -0.8984375 51.53515625 C-0.764375 50.87193359 -0.6303125 50.20871094 -0.4921875 49.52539062 C0.06510078 46.70198621 0.4765625 44.1084546 0.4765625 41.22265625 C-0.09449219 41.66996094 -0.66554688 42.11726563 -1.25390625 42.578125 C-14.75163865 52.64241195 -28.84470969 55.57922687 -45.3359375 55.53515625 C-46.53025391 55.55126953 -47.72457031 55.56738281 -48.95507812 55.58398438 C-66.16997204 55.59335557 -79.62597888 50.41809135 -92.24609375 38.6875 C-97.36535161 33.14675951 -98.90198452 28.10897402 -98.8046875 20.7265625 C-97.87883768 12.4839273 -93.7184838 5.66831122 -87.40234375 0.48046875 C-63.34891905 -17.4537647 -24.46692122 -17.23289343 0 0 Z " fill="#F5FCFB" transform="translate(123.5234375,17.77734375)"/>
<path d="M0 0 C0.75087891 -0.00386719 1.50175781 -0.00773438 2.27539062 -0.01171875 C6.19572111 -0.00482283 9.71734769 0.29756216 13.5625 1.125 C15.89675788 0.7982039 18.22992506 0.46359959 20.5625 0.125 C24.23088914 0.0325196 27.89367709 0.07242133 31.5625 0.125 C32.5525 0.125 33.5425 0.125 34.5625 0.125 C36.90460921 0.76014826 39.23934969 1.4236716 41.5625 2.125 C41.55726318 3.07866455 41.55202637 4.0323291 41.54663086 5.01489258 C41.52852735 8.55394553 41.51704839 12.09299438 41.50756836 15.63208008 C41.5025404 17.1636626 41.49571716 18.69524033 41.48706055 20.22680664 C41.47492771 22.42856022 41.46925633 24.63025033 41.46484375 26.83203125 C41.45968246 27.51650833 41.45452118 28.20098541 41.44920349 28.90620422 C41.4488464 31.93406242 41.59633381 34.22650142 42.5625 37.125 C42.2325 38.115 41.9025 39.105 41.5625 40.125 C41.42734796 42.69288877 41.51176561 44.89502377 42.06640625 47.40917969 C42.61378204 50.40573889 42.65872186 53.15785353 42.625 56.203125 C42.61726562 57.36457031 42.60953125 58.52601562 42.6015625 59.72265625 C42.57568793 62.14192888 42.54964843 64.56119974 42.5234375 66.98046875 C42.51570312 68.14707031 42.50796875 69.31367187 42.5 70.515625 C42.48259766 72.0939209 42.48259766 72.0939209 42.46484375 73.70410156 C42.53913121 76.30639118 42.73531607 78.73180546 43.05810547 81.3034668 C43.7123958 86.82965782 43.70609076 92.31992383 43.6953125 97.87890625 C43.69626923 98.97919662 43.69722595 100.079487 43.69821167 101.21311951 C43.69888877 103.5267645 43.69706744 105.84041145 43.69287109 108.15405273 C43.68751107 111.68021943 43.69283478 115.20625907 43.69921875 118.73242188 C43.69855799 120.98958361 43.69727686 123.24674527 43.6953125 125.50390625 C43.69733673 126.54994522 43.69936096 127.59598419 43.70144653 128.67372131 C43.68368654 134.25952225 43.33697805 139.59538912 42.5625 145.125 C42.60390014 148.48217526 42.7471509 151.81907818 42.91796875 155.171875 C42.46648089 158.92269724 41.4833616 159.80111035 38.5625 162.125 C35.95994568 162.66990662 35.95994568 162.66990662 32.93530273 162.73217773 C31.77684341 162.76416763 30.61838409 162.79615753 29.42481995 162.82911682 C27.51103798 162.8498954 27.51103798 162.8498954 25.55859375 162.87109375 C24.19109191 162.89892557 22.82361427 162.92796817 21.4561615 162.95811462 C16.82514513 163.04974421 12.19426142 163.09186931 7.5625 163.125 C6.30885525 163.13435452 6.30885525 163.13435452 5.02988434 163.14389801 C-7.81527899 163.233491 -20.65995497 163.22430196 -33.50531006 163.19366455 C-38.36746773 163.18321986 -43.2296311 163.17882287 -48.09179688 163.17382812 C-57.54037887 163.16327514 -66.9889366 163.14633317 -76.4375 163.125 C-76.4375 162.135 -76.4375 161.145 -76.4375 160.125 C-77.489375 159.9703125 -77.489375 159.9703125 -78.5625 159.8125 C-83.67265908 158.59050544 -87.99922225 155.8662892 -92.4375 153.125 C-92.4375 153.785 -92.4375 154.445 -92.4375 155.125 C-94.125 155 -94.125 155 -96.4375 154.125 C-97.67320709 152.66166266 -98.90476071 151.1934723 -100.078125 149.6796875 C-102.16556001 147.29233366 -104.77154578 145.80571027 -107.4375 144.125 C-109.3125 142.5625 -109.3125 142.5625 -110.4375 141.125 C-110.4375 140.135 -110.4375 139.145 -110.4375 138.125 C-111.0975 138.125 -111.7575 138.125 -112.4375 138.125 C-113.53454296 127.01954975 -113.84963165 116.1022432 -111.4375 105.125 C-111.1075 105.125 -110.7775 105.125 -110.4375 105.125 C-110.458125 106.3625 -110.47875 107.6 -110.5 108.875 C-110.50516681 111.7890825 -110.36765558 114.33453327 -109.4375 117.125 C-108.51710938 117.24681641 -108.51710938 117.24681641 -107.578125 117.37109375 C-105.4375 118.125 -105.4375 118.125 -104.234375 119.91015625 C-103.88890625 120.66167969 -103.5434375 121.41320312 -103.1875 122.1875 C-96.3550562 135.17529858 -82.01249786 143.58447756 -68.4375 148.125 C-67.73753906 148.38667969 -67.03757813 148.64835938 -66.31640625 148.91796875 C-44.50362034 156.80259045 -19.54213953 156.79865272 1.73510742 147.16357422 C13.54773318 141.4227764 25.71970087 133.42957013 31 121 C33.97649717 111.77542471 33.98116825 101.80996863 29.5625 93.125 C25.3919773 85.22388316 17.80574497 80.95382998 10.5625 76.125 C11.25428718 69.90756274 12.85810037 64.07211661 14.5625 58.0625 C19.76603964 40.5918224 19.76603964 40.5918224 16.0625 23.3125 C9.36877549 12.47800637 -0.86538047 7.63114526 -12.4375 3.125 C-12.4375 2.465 -12.4375 1.805 -12.4375 1.125 C-8.29284837 -0.03677152 -4.27544638 -0.02190664 0 0 Z " fill="#3C9694" transform="translate(116.4375,5.875)"/>
<path d="M0 0 C0.99 1.0209375 0.99 1.0209375 2 2.0625 C2.99655361 3.04517404 3.99696553 4.02394201 5 5 C5.55816406 5.55429687 6.11632812 6.10859375 6.69140625 6.6796875 C19.0563379 18.2960116 34.29898963 21.58009199 50.8125 21.4375 C52.04355469 21.42992676 53.27460937 21.42235352 54.54296875 21.41455078 C70.78303057 21.12056446 84.7463975 16.57204625 98 7 C97.28855094 17.64720317 95.49481424 28.19561229 91.23828125 38.0234375 C89.14890784 43.04584298 87.36923054 48.18771565 85.54980469 53.31323242 C84.03060688 57.51157925 82.40237955 61.21163226 80 65 C79.62690101 66.65821773 79.29299023 68.32577014 79 70 C78.36562656 71.6792238 77.70710678 73.35008418 77 75 C75.768606 71.30581799 76.35567236 68.7943739 77 65 C76.34 65 75.68 65 75 65 C75 65.66 75 66.32 75 67 C73.27559635 67.98753064 71.54524974 68.96468806 69.8125 69.9375 C68.84957031 70.48277344 67.88664062 71.02804688 66.89453125 71.58984375 C60.322962 74.79137749 52.25412457 75.21546416 45.23828125 73.2109375 C40.92739555 71.52266836 36.86149049 69.57432699 33 67 C33.495 71.455 33.495 71.455 34 76 C32 75 32 75 30 73 C29.63066355 70.24627091 29.81663322 67.79634339 30 65 C28.741875 64.649375 27.48375 64.29875 26.1875 63.9375 C16.74219932 60.7255111 9.13717937 54.47396506 1.4375 48.3125 C0.73423584 47.75385254 0.03097168 47.19520508 -0.69360352 46.61962891 C-1.35287842 46.08128418 -2.01215332 45.54293945 -2.69140625 44.98828125 C-3.28123291 44.50915283 -3.87105957 44.03002441 -4.47875977 43.53637695 C-6.16801224 41.83031599 -7.04263382 40.18847603 -8 38 C-7.34 38 -6.68 38 -6 38 C-6.495 36.515 -6.495 36.515 -7 35 C-5.02 35 -3.04 35 -1 35 C-1.73605469 34.29875 -2.47210938 33.5975 -3.23046875 32.875 C-8.64092911 27.6457822 -13.54971266 22.78159926 -17 16 C-17 14.68 -17 13.36 -17 12 C-12.72588349 12.48469363 -11.04944886 13.541098 -8.375 16.875 C-4.90261225 21.71799383 -4.90261225 21.71799383 0.04296875 24.51171875 C0.75066406 24.56972656 1.45835938 24.62773438 2.1875 24.6875 C3.445625 24.790625 4.70375 24.89375 6 25 C5.29217061 22.88855998 4.55786317 20.78598401 3.8125 18.6875 C3.20341797 16.92986328 3.20341797 16.92986328 2.58203125 15.13671875 C0.75778147 11.51974943 -0.256493 10.47216567 -4 9 C-7.58228216 8.63881509 -7.58228216 8.63881509 -11.3125 8.8125 C-12.56675781 8.83957031 -13.82101563 8.86664063 -15.11328125 8.89453125 C-16.06589844 8.92933594 -17.01851562 8.96414062 -18 9 C-17.6484375 7.078125 -17.6484375 7.078125 -17 5 C-11.70214935 2.21165755 -5.82197665 2.813531 0 3 C0 2.01 0 1.02 0 0 Z " fill="#4CC7BA" transform="translate(27,51)"/>
<path d="M0 0 C1.1640483 1.41728733 2.32559351 2.83670779 3.47412109 4.26660156 C6.23075512 7.39813782 9.50547445 9.85207172 12.8125 12.375 C13.54791016 12.94371826 14.28332031 13.51243652 15.04101562 14.09838867 C20.68602541 18.33154446 26.49345379 21.58290645 33.08520508 24.11279297 C35 24.92578125 35 24.92578125 38 27 C38.80305658 29.72379006 38.85969442 32.1325048 39 35 C39.99 35.495 39.99 35.495 41 36 C40.67 35.34 40.34 34.68 40 34 C39.960008 32.00039988 39.95653201 29.99952758 40 28 C40.81984375 28.42152344 41.6396875 28.84304687 42.484375 29.27734375 C43.56203125 29.82519531 44.6396875 30.37304688 45.75 30.9375 C47.35101563 31.75541016 47.35101563 31.75541016 48.984375 32.58984375 C56.21340674 35.97025885 64.27542274 36.11885554 71.875 33.6875 C75.15454519 32.4554705 78.04064478 30.88322605 81 29 C81.66 29 82.32 29 83 29 C83 28.34 83 27.68 83 27 C83.66 27 84.32 27 85 27 C85 29.64 85 32.28 85 35 C85.28875 34.113125 85.5775 33.22625 85.875 32.3125 C86.8335481 29.49010836 87.88824711 26.76383324 89 24 C89.48035281 22.75566557 89.95942621 21.51083681 90.4375 20.265625 C90.95820891 18.92703493 91.47904465 17.58849418 92 16.25 C92.26039062 15.56550781 92.52078125 14.88101563 92.7890625 14.17578125 C94.77409175 9.11295413 94.77409175 9.11295413 97 8 C102.92896147 18.08830945 106.08752057 26.10785438 103.29296875 38.01171875 C99.86446425 48.70573492 93.76314202 53.90147028 84 59 C77.04076597 62.45274739 70.8406608 63.1811803 63.1875 63.1875 C62.41857422 63.19974609 61.64964844 63.21199219 60.85742188 63.22460938 C50.12740076 63.25177399 38.67025556 59.91256747 30.1875 53.1875 C26.38510665 50.57801437 24.5023594 50.83324595 20 51 C17.0625 49.5 17.0625 49.5 15 48 C15.185625 48.721875 15.37125 49.44375 15.5625 50.1875 C16.01995307 53.12826973 15.73516357 55.14103058 15 58 C6.30633217 56.43357336 -0.90795071 47.71643606 -6 41 C-10.93529605 32.79827969 -12.36883808 24.43520531 -11 15 C-5.78547855 0 -5.78547855 0 0 0 Z " fill="#F6FDFD" transform="translate(19,89)"/>
<path d="M0 0 C0.33 0 0.66 0 1 0 C0.979375 1.2375 0.95875 2.475 0.9375 3.75 C0.93233319 6.6640825 1.06984442 9.20953327 2 12 C2.61359375 12.08121094 3.2271875 12.16242188 3.859375 12.24609375 C6 13 6 13 7.203125 14.78515625 C7.54859375 15.53667969 7.8940625 16.28820312 8.25 17.0625 C15.0824438 30.05029858 29.42500214 38.45947756 43 43 C43.69996094 43.26167969 44.39992187 43.52335937 45.12109375 43.79296875 C66.93973223 51.67970596 91.88589983 51.66623399 113.17041016 42.04077148 C123.29500547 37.12487785 131.89754941 30.74147764 139 22 C140.65583225 21.30686092 142.32110979 20.63525576 144 20 C146.22907195 17.2328762 147 15.69799101 147 12.125 C147 8.05544436 148.24874061 5.64845707 150 2 C151.4921875 3.09765625 151.4921875 3.09765625 153 5 C153.2578125 7.87109375 153.2578125 7.87109375 153.125 11.4375 C152.96960189 17.69538203 153.14220623 23.87573263 153.5 30.125 C153.67139312 33.41643464 153.83575662 36.70820221 154 40 C154.03689941 40.69061523 154.07379883 41.38123047 154.11181641 42.09277344 C154.20065929 43.89423382 154.2578077 45.69717962 154.3125 47.5 C154.36857422 48.96953125 154.36857422 48.96953125 154.42578125 50.46875 C153.85534968 53.8599395 152.65127934 54.85654165 150 57 C147.39744568 57.54490662 147.39744568 57.54490662 144.37280273 57.60717773 C143.21434341 57.63916763 142.05588409 57.67115753 140.86231995 57.70411682 C138.94853798 57.7248954 138.94853798 57.7248954 136.99609375 57.74609375 C135.62859191 57.77392557 134.26111427 57.80296817 132.8936615 57.83311462 C128.26264513 57.92474421 123.63176142 57.96686931 119 58 C117.74635525 58.00935452 117.74635525 58.00935452 116.46738434 58.01889801 C103.62222101 58.108491 90.77754503 58.09930196 77.93218994 58.06866455 C73.07003227 58.05821986 68.2078689 58.05382287 63.34570312 58.04882812 C53.89712113 58.03827514 44.4485634 58.02133317 35 58 C35 57.01 35 56.02 35 55 C34.29875 54.896875 33.5975 54.79375 32.875 54.6875 C27.76484092 53.46550544 23.43827775 50.7412892 19 48 C19 48.66 19 49.32 19 50 C17.3125 49.875 17.3125 49.875 15 49 C13.76429291 47.53666266 12.53273929 46.0684723 11.359375 44.5546875 C9.27193999 42.16733366 6.66595422 40.68071027 4 39 C2.125 37.4375 2.125 37.4375 1 36 C1 35.01 1 34.02 1 33 C0.34 33 -0.32 33 -1 33 C-2.09704296 21.89454975 -2.41213165 10.9772432 0 0 Z " fill="#1CA09A" transform="translate(5,111)"/>
<path d="M0 0 C3.83920114 3.44922974 4.831174 5.55292002 5.4375 10.75 C5.35786363 15.09018206 3.87551258 17.34074177 0.890625 20.40234375 C-10.98875615 30.44091171 -25.58113625 30.94081547 -40.43310547 30.21582031 C-48.88876155 29.50488252 -56.69493114 26.75680201 -63 21 C-66.55045402 16.07517668 -66.85818029 10.87902819 -66 5 C-62.60419443 -1.36713545 -55.59414766 -4.66283194 -48.9375 -6.75 C-32.97010824 -11.05827491 -13.73940431 -9.98120136 0 0 Z " fill="#EE0E05" transform="translate(111,37)"/>
<path d="M0 0 C53.79 0 107.58 0 163 0 C163 56.1 163 112.2 163 170 C109.21 170 55.42 170 0 170 C0 113.9 0 57.8 0 0 Z M3 7 C1.85696816 9.28606367 1.84051255 10.65891375 1.77880859 13.20263672 C1.75563568 14.07048798 1.73246277 14.93833923 1.70858765 15.83248901 C1.6887381 16.77206451 1.66888855 17.71164001 1.6484375 18.6796875 C1.62528473 19.64399689 1.60213196 20.60830627 1.57827759 21.60183716 C1.53060484 23.64449756 1.48537487 25.68721619 1.44238281 27.72998047 C1.37542058 30.85537006 1.29760468 33.98035927 1.21875 37.10546875 C1.17382117 39.08852687 1.12952935 41.07159954 1.0859375 43.0546875 C1.06203949 43.99021454 1.03814148 44.92574158 1.01351929 45.88961792 C0.9966507 46.7637735 0.9797821 47.63792908 0.96240234 48.53857422 C0.94543304 49.30531464 0.92846375 50.07205505 0.91098022 50.86203003 C1.00182581 53.0438501 1.43417661 54.89765814 2 57 C2.09152196 58.78726838 2.13065894 60.57757863 2.1328125 62.3671875 C2.13410156 63.4190625 2.13539063 64.4709375 2.13671875 65.5546875 C2.13285156 66.65039062 2.12898437 67.74609375 2.125 68.875 C2.12886719 69.93203125 2.13273438 70.9890625 2.13671875 72.078125 C2.13005402 77.58319483 1.95030134 83.01879677 1.48852539 88.50512695 C0.94483399 95.89256879 0.9283848 103.21038868 1.05078125 110.61328125 C1.07009743 111.96176289 1.08914989 113.31024833 1.10795593 114.65873718 C1.14848191 117.45624862 1.19362918 120.25363807 1.24194336 123.05102539 C1.30286161 126.61218795 1.34966506 130.17338241 1.39277363 133.73479939 C1.42831629 136.50863688 1.47251531 139.2822881 1.51912498 142.0559597 C1.54996605 143.99941123 1.5727382 145.94298553 1.59529114 147.8865509 C1.72347847 154.52096501 2.03409591 160.63616686 4 167 C7.1833133 169.12220887 7.9505544 169.24965932 11.59393311 169.24723816 C13.0096032 169.25352989 13.0096032 169.25352989 14.45387268 169.25994873 C15.48842087 169.25432922 16.52296906 169.24870972 17.58886719 169.24291992 C18.68067795 169.24481827 19.77248871 169.24671661 20.89738464 169.24867249 C24.53061987 169.252394 28.16365728 169.24163783 31.796875 169.23046875 C34.34149146 169.22927524 36.88610837 169.22882415 39.4307251 169.2290802 C44.79092338 169.22751181 50.15105372 169.21945513 55.51123047 169.20581055 C60.9536247 169.19200362 66.39596694 169.1847921 71.83837891 169.18530273 C89.22614057 169.18653254 106.61276319 169.14042711 124 169 C124.95182159 168.99285225 125.90364319 168.9857045 126.88430786 168.97834015 C131.60994002 168.94026815 136.33412375 168.88304036 141.05878448 168.77865028 C142.93723767 168.73989836 144.81602404 168.71847145 146.69476318 168.69779968 C147.76776672 168.66644424 148.84077026 168.63508881 149.94628906 168.6027832 C151.28774994 168.57315239 151.28774994 168.57315239 152.65631104 168.54292297 C155.76091992 167.82373049 157.00815124 166.43346962 159 164 C159.52677725 161.93874043 159.52677725 161.93874043 159.35546875 159.77734375 C159.32936523 158.59881836 159.32936523 158.59881836 159.30273438 157.39648438 C159.26470703 156.58501953 159.22667969 155.77355469 159.1875 154.9375 C159.13513166 153.32174499 159.08678823 151.70585321 159.04296875 150.08984375 C159.01227295 149.37691162 158.98157715 148.66397949 158.94995117 147.92944336 C159 146 159 146 160 143 C160.09216689 141.39146523 160.12790947 139.77938533 160.12939453 138.16821289 C160.13412277 136.69506371 160.13412277 136.69506371 160.13894653 135.19215393 C160.1369223 134.1297197 160.13489807 133.06728546 160.1328125 131.97265625 C160.13376923 130.87336288 160.13472595 129.77406952 160.13571167 128.64146423 C160.13639298 126.30874576 160.1345421 123.97602539 160.13037109 121.64331055 C160.12506805 118.10786551 160.13029382 114.5725502 160.13671875 111.03710938 C160.13605706 108.76562472 160.13477403 106.49414015 160.1328125 104.22265625 C160.13584885 102.65633202 160.13584885 102.65633202 160.13894653 101.05836487 C160.119718 94.89439117 159.78239514 88.83317603 159.22238159 82.69538879 C158.94789004 79.36839828 158.90242421 76.07559669 158.9375 72.73828125 C158.94523438 71.51818359 158.95296875 70.29808594 158.9609375 69.04101562 C158.97382813 67.81060547 158.98671875 66.58019531 159 65.3125 C159.02535559 62.80863546 159.04644051 60.30472267 159.0625 57.80078125 C159.07990234 56.16363159 159.07990234 56.16363159 159.09765625 54.4934082 C159.28485188 52.05855458 159.28485188 52.05855458 158 51 C157.85363946 47.63370749 157.92806521 45.21580438 159 42 C158.76008114 40.44160811 158.51724035 38.88362655 158.26220703 37.32763672 C157.65544912 31.9413891 157.90060221 26.47512164 157.9375 21.0625 C157.94201172 19.80630859 157.94652344 18.55011719 157.95117188 17.25585938 C157.96290319 14.17052337 157.979319 11.08528684 158 8 C153.08417923 6.48046291 153.08417923 6.48046291 148 6 C146.77152344 5.98839844 145.54304687 5.97679687 144.27734375 5.96484375 C142.83073023 5.95556209 141.38411559 5.94645341 139.9375 5.9375 C139.20466797 5.92912109 138.47183594 5.92074219 137.71679688 5.91210938 C133.72957625 5.80266026 133.72957625 5.80266026 130 7 C129.31035156 6.85820313 128.62070313 6.71640625 127.91015625 6.5703125 C124.06204244 5.8161855 120.34821282 5.85485899 116.4375 5.875 C115.30538086 5.86919922 115.30538086 5.86919922 114.15039062 5.86328125 C110.59675207 5.86954317 107.41753192 6.04204464 104 7 C104 7.66 104 8.32 104 9 C103.38898438 8.79503906 102.77796875 8.59007812 102.1484375 8.37890625 C95.57892739 6.44506454 89.35917404 5.68053059 82.54296875 5.4140625 C81.13429283 5.35511055 81.13429283 5.35511055 79.69715881 5.29496765 C67.17847753 4.82616543 54.65148864 4.81282841 42.12573242 4.81469727 C38.59113448 4.8148007 35.05672933 4.80091183 31.5221777 4.78392506 C28.10722981 4.77016383 24.692319 4.7707195 21.27734375 4.76953125 C20.01599106 4.76234573 18.75463837 4.75516022 17.45506287 4.74775696 C16.28516312 4.75083359 15.11526337 4.75391022 13.90991211 4.75708008 C12.88594833 4.75565506 11.86198456 4.75423004 10.80699158 4.75276184 C7.82192745 5.01568452 5.66845149 5.64964981 3 7 Z " fill="#6DB2B0" transform="translate(0,0)"/>
<path d="M0 0 C6.09257456 2.98411815 9.88542973 6.6327264 14 12 C14.65742188 12.81791016 14.65742188 12.81791016 15.328125 13.65234375 C19.65287222 19.88058887 18.54589104 27.48203555 17.4375 34.625 C15.1544248 39.98526352 11.79166466 45.64811813 7.2890625 49.44140625 C5.35212719 51.78333713 5.70748313 53.71202216 5.8125 56.6875 C5.83957031 57.68136719 5.86664063 58.67523438 5.89453125 59.69921875 C5.92933594 60.45847656 5.96414062 61.21773437 6 62 C-18.77066265 73.83019283 -44.4362423 77.1466986 -70.8359375 68.01953125 C-72.95989684 67.10660136 -74.967357 66.09969163 -77 65 C-78.85316679 64.08131362 -80.70735676 63.16468868 -82.5625 62.25 C-84.0426892 61.50202007 -85.52223801 60.75276393 -87 60 C-86.89171875 59.06027344 -86.89171875 59.06027344 -86.78125 58.1015625 C-86.64203125 56.87566406 -86.64203125 56.87566406 -86.5 55.625 C-86.4071875 54.81289062 -86.314375 54.00078125 -86.21875 53.1640625 C-85.96647649 51.03087175 -85.96647649 51.03087175 -86 49 C-85.319375 49.33 -84.63875 49.66 -83.9375 50 C-81.00136778 51.21474073 -81.00136778 51.21474073 -77.75 50.75 C-73.10861085 51.05942594 -71.21504852 52.6740146 -67.53125 55.3359375 C-55.2714561 63.39561682 -40.1725308 64.79836681 -25.91796875 62.50390625 C-17.80383358 60.24217094 -10.63447384 56.29735312 -5 50 C-4.50628906 49.5565625 -4.01257813 49.113125 -3.50390625 48.65625 C1.80611241 42.80833334 2.72085418 33.82044358 2.55078125 26.265625 C1.75458442 21.5449119 -0.51495019 17.9941763 -2.859375 13.875 C-4.53364012 9.65493448 -3.59277488 6.96252953 -1.96484375 2.86328125 C-1 1 -1 1 0 0 Z " fill="#9DD0DA" transform="translate(120,88)"/>
<path d="M0 0 C0.61875 0.804375 1.2375 1.60875 1.875 2.4375 C5.94782046 7.59970709 11.69802604 11.19475553 17 15 C16.01 15.495 16.01 15.495 15 16 C14.49697136 29.09737524 15.74552577 36.83710972 24 47 C24.66 47.99 25.32 48.98 26 50 C22.2983569 50.94693195 20.60887535 51.30443767 17.125 49.5625 C16.42375 49.046875 15.7225 48.53125 15 48 C15.185625 48.721875 15.37125 49.44375 15.5625 50.1875 C16.01995307 53.12826973 15.73516357 55.14103058 15 58 C6.30633217 56.43357336 -0.90795071 47.71643606 -6 41 C-10.93529605 32.79827969 -12.36883808 24.43520531 -11 15 C-5.78547855 0 -5.78547855 0 0 0 Z " fill="#AEE0E6" transform="translate(19,89)"/>
<path d="M0 0 C2.62113708 0 4.50935112 0.31292445 7 1 C6.98839844 2.26714844 6.97679687 3.53429687 6.96484375 4.83984375 C6.95545581 6.53906101 6.94635669 8.23827989 6.9375 9.9375 C6.92912109 10.76830078 6.92074219 11.59910156 6.91210938 12.45507812 C6.90888672 13.28330078 6.90566406 14.11152344 6.90234375 14.96484375 C6.89710693 15.7137085 6.89187012 16.46257324 6.88647461 17.23413086 C6.98172028 19.55464305 7.20696276 21.7684277 7.49560547 24.0690918 C8.14655698 29.6888439 8.16203345 35.27772247 8.16796875 40.9296875 C8.17296135 42.59791061 8.17296135 42.59791061 8.17805481 44.29983521 C8.18309025 46.63445627 8.18546419 48.96908445 8.18530273 51.30371094 C8.18750608 54.88488357 8.20574333 58.46575606 8.22460938 62.046875 C8.22754058 64.32031145 8.2295272 66.59374936 8.23046875 68.8671875 C8.23765427 69.9390329 8.24483978 71.0108783 8.25224304 72.11520386 C8.24916641 73.10698639 8.24608978 74.09876892 8.24291992 75.12060547 C8.24434494 75.99280731 8.24576996 76.86500916 8.24723816 77.76364136 C8 80 8 80 6 83 C5.83125237 79.1250877 5.66537155 75.25005773 5.5 71.375 C5.45230469 70.28058594 5.40460938 69.18617188 5.35546875 68.05859375 C5.31035156 66.99511719 5.26523438 65.93164062 5.21875 64.8359375 C5.17685547 63.86188965 5.13496094 62.8878418 5.09179688 61.88427734 C5.02686038 59.84395891 5.04122208 57.80040125 5.11132812 55.76025391 C5.30656601 52.85454195 5.30656601 52.85454195 3 51 C2.86722656 51.60328125 2.73445313 52.2065625 2.59765625 52.828125 C2.42105469 53.62734375 2.24445313 54.4265625 2.0625 55.25 C1.88847656 56.03890625 1.71445313 56.8278125 1.53515625 57.640625 C1.27025391 58.80851562 1.27025391 58.80851562 1 60 C0.855625 60.6909375 0.71125 61.381875 0.5625 62.09375 C-0.32946086 65.11650626 -2.20026466 67.44553693 -4 70 C-5.485 69.505 -5.485 69.505 -7 69 C-6.71125 68.36835938 -6.4225 67.73671875 -6.125 67.0859375 C-2.48515182 58.31491445 -1.08430603 48.76507522 -4.1875 39.5625 C-9.14369799 29.8210074 -15.96147134 25.02568577 -25 19 C-24.67 17.68 -24.34 16.36 -24 15 C-23.33613281 15.03222656 -22.67226562 15.06445312 -21.98828125 15.09765625 C-19.08862415 15.05955857 -16.7692523 14.88785188 -14 14 C-11.65113519 11.26395967 -10.28653153 8.3517532 -9 5 C-6.525 5.495 -6.525 5.495 -4 6 C-3.566875 5.071875 -3.566875 5.071875 -3.125 4.125 C-2 2 -2 2 0 0 Z " fill="#329796" transform="translate(152,63)"/>
<path d="M0 0 C1.86785156 0.01353516 1.86785156 0.01353516 3.7734375 0.02734375 C5.18496094 0.04474609 5.18496094 0.04474609 6.625 0.0625 C6.625 0.7225 6.625 1.3825 6.625 2.0625 C7.7696875 2.04703125 8.914375 2.0315625 10.09375 2.015625 C22.45467666 2.0265061 34.21368021 2.74804605 43.5 11.5625 C46.61180254 14.74667004 48.41801718 17.47563171 49 21.9375 C48.5235098 25.90825164 47.13037413 27.98446892 44.625 31.0625 C43.14 31.5575 43.14 31.5575 41.625 32.0625 C41.51285156 31.06669922 41.51285156 31.06669922 41.3984375 30.05078125 C40.72807759 25.54885442 40.21974 22.74873846 37.1875 19.25 C35.54484595 18.09953006 35.54484595 18.09953006 33.625 17.0625 C32.85027344 16.62164062 32.07554688 16.18078125 31.27734375 15.7265625 C18.68885624 9.3118104 4.13008426 8.4475027 -9.375 12.0625 C-10.20257813 12.25714844 -11.03015625 12.45179687 -11.8828125 12.65234375 C-18.0285258 14.24045621 -22.72119431 16.7003166 -27.375 21.0625 C-29.68926642 25.69103285 -28.70255096 31.87512778 -27.375 36.6875 C-27.045 37.47125 -26.715 38.255 -26.375 39.0625 C-29.86324341 38.8041116 -30.61714247 37.79783264 -33.0625 35.125 C-36.90530372 30.03588156 -36.86448697 26.31287205 -36.375 20.0625 C-34.60146754 13.52259904 -30.88104648 9.7507608 -25.375 6.0625 C-16.90547545 1.75558581 -9.49901472 -0.08961335 0 0 Z " fill="#FACC7F" transform="translate(74.375,18.9375)"/>
<path d="M0 0 C0.66 0 1.32 0 2 0 C2 2.64 2 5.28 2 8 C2.66 6.68 3.32 5.36 4 4 C4.66 4 5.32 4 6 4 C6.08062951 9.6210289 5.6378307 13.92222801 2 18.375 C-4.48258927 24.97763722 -12.71095708 27.10652313 -21.75 27.25 C-28.61088499 27.18248822 -33.93744344 25.83753394 -39.8125 22.3125 C-44.11567551 17.76342874 -46.24006621 13.30795543 -46.25 7 C-46.18688444 5.6655568 -46.11094336 4.33132032 -46 3 C-45.67 3 -45.34 3 -45 3 C-44.34 4.98 -43.68 6.96 -43 9 C-43 8.34 -43 7.68 -43 7 C-43 5 -43 3 -43 1 C-42.18015625 1.42152344 -41.3603125 1.84304687 -40.515625 2.27734375 C-39.43796875 2.82519531 -38.3603125 3.37304688 -37.25 3.9375 C-35.64898437 4.75541016 -35.64898437 4.75541016 -34.015625 5.58984375 C-26.78659326 8.97025885 -18.72457726 9.11885554 -11.125 6.6875 C-7.84545481 5.4554705 -4.95935522 3.88322605 -2 2 C-1.34 2 -0.68 2 0 2 C0 1.34 0 0.68 0 0 Z " fill="#AEE0E6" transform="translate(102,116)"/>
<path d="M0 0 C-2.31 0.66 -4.62 1.32 -7 2 C-7 2.66 -7 3.32 -7 4 C-6.34 4 -5.68 4 -5 4 C-5.48578543 7.12290635 -5.9986012 9.99580359 -7 13 C-6.68847977 14.67088122 -6.35185068 16.33714403 -6 18 C-5.90991749 20.04010393 -5.86988199 22.08291462 -5.875 24.125 C-5.87242187 25.15882812 -5.86984375 26.19265625 -5.8671875 27.2578125 C-6 30 -6 30 -7 33 C-6.67 33.598125 -6.34 34.19625 -6 34.8125 C-4.63182245 37.80538839 -5.38037666 39.83303625 -6 43 C-5.67 43.66 -5.34 44.32 -5 45 C-5.23601812 46.8560882 -5.47609011 48.71174269 -5.73556519 50.56469727 C-6.24630897 55.26837345 -6.12083352 59.99284792 -6.09765625 64.71875 C-6.0962413 65.81723267 -6.09482635 66.91571533 -6.09336853 68.04748535 C-6.08780257 71.53168543 -6.07525639 75.01581958 -6.0625 78.5 C-6.0574806 80.8723949 -6.05291846 83.24479082 -6.04882812 85.6171875 C-6.0378443 91.41148056 -6.0211403 97.20573557 -6 103 C-5.34 103 -4.68 103 -4 103 C-4 101.02 -4 99.04 -4 97 C-3.34 97.33 -2.68 97.66 -2 98 C-2.01160156 99.02480469 -2.02320313 100.04960938 -2.03515625 101.10546875 C-2.04454022 102.466144 -2.05363977 103.82682124 -2.0625 105.1875 C-2.07087891 105.86103516 -2.07925781 106.53457031 -2.08789062 107.22851562 C-2.10606538 110.95434131 -1.89299392 114.3788042 -1 118 C-1.99 117.67 -2.98 117.34 -4 117 C-5.1875 114.4375 -5.1875 114.4375 -6 112 C-6.65655389 120.68761489 -7.16311941 129.28217363 -7 138 C-6.34 138 -5.68 138 -5 138 C-5 138.99 -5 139.98 -5 141 C-4.01 141.33 -3.02 141.66 -2 142 C-0.64264858 143.30887458 0.68505488 144.64852862 2 146 C3.82093467 147.5648032 5.66114237 149.10321404 7.51171875 150.6328125 C9 152 9 152 10 154 C10.99 154.33 11.98 154.66 13 155 C13 154.34 13 153.68 13 153 C16.65938172 154.43164111 20.23988068 155.98934296 23.8125 157.625 C24.78832031 158.07101563 25.76414063 158.51703125 26.76953125 158.9765625 C27.50558594 159.31429687 28.24164063 159.65203125 29 160 C29 160.99 29 161.98 29 163 C24.35524041 163.04944066 19.71063404 163.08573863 15.06567383 163.10986328 C13.48556856 163.11992041 11.9054819 163.13356785 10.32543945 163.15087891 C8.0541525 163.17514022 5.78311164 163.18648582 3.51171875 163.1953125 C2.80536789 163.20563507 2.09901703 163.21595764 1.3712616 163.22659302 C-2.32197792 163.22743775 -3.83919216 163.10720523 -7 161 C-9.36693575 153.36589706 -9.35863079 145.77361692 -9.44921875 137.83203125 C-9.4705401 136.46594757 -9.49251033 135.09987387 -9.51509094 133.73381042 C-9.56025586 130.88045027 -9.59909126 128.02709894 -9.63305664 125.17358398 C-9.67638932 121.55753287 -9.73320278 117.94185426 -9.7946043 114.32606983 C-9.84134199 111.50587518 -9.88187999 108.68561664 -9.92057228 105.86530113 C-9.94830282 103.89704201 -9.98014656 101.92884218 -10.01213074 99.96064758 C-10.09356992 92.6101079 -9.81958947 85.37607428 -9.23329163 78.04878235 C-8.96973063 74.60442341 -8.87089216 71.21525818 -8.8671875 67.76171875 C-8.86589844 66.59318359 -8.86460938 65.42464844 -8.86328125 64.22070312 C-8.86714844 63.05474609 -8.87101563 61.88878906 -8.875 60.6875 C-8.86919922 58.8631543 -8.86919922 58.8631543 -8.86328125 57.00195312 C-8.86521484 55.27428711 -8.86521484 55.27428711 -8.8671875 53.51171875 C-8.86831543 52.47490967 -8.86944336 51.43810059 -8.87060547 50.36987305 C-8.73314194 48.0443565 -8.73314194 48.0443565 -10 47 C-10.07389855 45.6335539 -10.07824773 44.26323802 -10.0534668 42.89501953 C-10.0398259 42.02386505 -10.026185 41.15271057 -10.01213074 40.25515747 C-9.99136978 39.30728363 -9.97060883 38.35940979 -9.94921875 37.3828125 C-9.9303511 36.41471649 -9.91148346 35.44662048 -9.89204407 34.44918823 C-9.8500766 32.39624441 -9.80533099 30.34335582 -9.75805664 28.29052734 C-9.68795961 25.14562052 -9.6335751 22.00069615 -9.58007812 18.85546875 C-9.53742286 16.86456243 -9.49383382 14.87367586 -9.44921875 12.8828125 C-9.43453049 11.93898712 -9.41984222 10.99516174 -9.40470886 10.0227356 C-9.38161148 9.14527679 -9.3585141 8.26781799 -9.3347168 7.36376953 C-9.31837692 6.5917923 -9.30203705 5.81981506 -9.28520203 5.02444458 C-9 3 -9 3 -7 0 C-4.02096037 -1.15317663 -3.13440869 -1.0448029 0 0 Z " fill="#3B9794" transform="translate(11,6)"/>
<path d="M0 0 C6.09257456 2.98411815 9.88542973 6.6327264 14 12 C14.43828125 12.54527344 14.8765625 13.09054688 15.328125 13.65234375 C19.65287222 19.88058887 18.54589104 27.48203555 17.4375 34.625 C15.09402559 40.12707035 11.65314152 45.4280134 7.33984375 49.609375 C5.73609246 51.07421495 5.73609246 51.07421495 5 54 C-4.93351768 59.85702693 -17.32432241 64.91573942 -29 64 C-29 63.67 -29 63.34 -29 63 C-28.38253906 62.84144531 -27.76507813 62.68289062 -27.12890625 62.51953125 C-18.36711231 60.1057037 -11.14974672 56.87324634 -5 50 C-4.25943359 49.33484375 -4.25943359 49.33484375 -3.50390625 48.65625 C1.80611241 42.80833334 2.72085418 33.82044358 2.55078125 26.265625 C1.75458442 21.5449119 -0.51495019 17.9941763 -2.859375 13.875 C-4.53364012 9.65493448 -3.59277488 6.96252953 -1.96484375 2.86328125 C-1 1 -1 1 0 0 Z " fill="#B0E0E6" transform="translate(120,88)"/>
<path d="M0 0 C53.79 0 107.58 0 163 0 C163 56.1 163 112.2 163 170 C162.34 170 161.68 170 161 170 C161 115.22 161 60.44 161 4 C141.2 4 121.4 4 101 4 C84.01948978 3.8671173 67.04017783 3.72550862 50.06036377 3.53643799 C44.36448624 3.47374206 38.66856952 3.41481208 32.97265625 3.35546875 C21.98173194 3.24045192 10.99085302 3.12162739 0 3 C0 2.01 0 1.02 0 0 Z " fill="#98C9C7" transform="translate(0,0)"/>
<path d="M0 0 C1.2890625 1.53125 1.2890625 1.53125 2.625 3.5 C3.07101563 4.1496875 3.51703125 4.799375 3.9765625 5.46875 C4.31429688 5.9740625 4.65203125 6.479375 5 7 C4.34 8.051875 3.68 9.10375 3 10.1875 C0.15170774 15.99678673 0.01671253 21.67054216 1 28 C2.89333129 33.11021392 5.27063044 37.84229121 8.6875 42.10546875 C10.67780708 44.97838225 10.19559685 47.60965452 10 51 C7.41508908 52.05311186 6.30624846 52.12415478 3.6875 51.0625 C-3.52508359 45.52726143 -8.14415609 38.56753174 -11 30 C-12.02506632 19.52875288 -11.00586807 11.94304442 -5 3 C-2.41666667 0 -2.41666667 0 0 0 Z " fill="#F4FCFD" transform="translate(19,89)"/>
<path d="M0 0 C4.59105276 4.30411196 5.67352751 9.95689195 7 15.875 C3.75668638 16.47561363 2.13125619 16.71668166 -1 15.875 C-5.16485411 12.57657895 -9.59525776 8.68448449 -12 3.875 C-14.02463255 3.22286708 -14.02463255 3.22286708 -16 2.875 C-12.70481412 11.66216235 -7.26995017 17.86761322 -0.5390625 24.30859375 C1 25.875 1 25.875 1 26.875 C-0.98 26.875 -2.96 26.875 -5 26.875 C-5 27.535 -5 28.195 -5 28.875 C-6.32 28.875 -7.64 28.875 -9 28.875 C-9.31453125 28.28332031 -9.6290625 27.69164063 -9.953125 27.08203125 C-11.89621188 23.49434372 -13.74789568 20.18842699 -16.3125 17 C-18 14.875 -18 14.875 -18 11.875 C-18.66 11.875 -19.32 11.875 -20 11.875 C-21.50934217 8.85631566 -21.17510672 6.20202771 -21 2.875 C-19 -0.125 -19 -0.125 -16.71875 -0.796875 C-11.06969341 -1.47865769 -5.39340463 -2.02252674 0 0 Z " fill="#28ACA5" transform="translate(26,60.125)"/>
<path d="M0 0 C0.81984375 0.42152344 1.6396875 0.84304687 2.484375 1.27734375 C3.56203125 1.82519531 4.6396875 2.37304688 5.75 2.9375 C6.81734375 3.48277344 7.8846875 4.02804688 8.984375 4.58984375 C16.16781423 7.94893904 24.22649245 8.18015351 31.75 5.625 C33.16769166 5.08602173 34.58440446 4.54445982 36 4 C38.32339547 3.29138585 40.65862222 2.64761513 43 2 C43.60805791 7.12505953 43.60805791 7.12505953 43 10 C39.04120953 14.50675865 33.17205141 16.8012804 27.328125 17.3359375 C17.7298538 17.54793104 10.4390085 16.88413243 3 10.375 C-0.07767604 6.7202597 -0.10258886 4.71908753 0 0 Z " fill="#F2FCFC" transform="translate(59,117)"/>
<path d="M0 0 C-2.31 0.66 -4.62 1.32 -7 2 C-7 2.66 -7 3.32 -7 4 C-6.34 4 -5.68 4 -5 4 C-5.48578543 7.12290635 -5.9986012 9.99580359 -7 13 C-6.68847977 14.67088122 -6.35185068 16.33714403 -6 18 C-5.90991749 20.04010393 -5.86988199 22.08291462 -5.875 24.125 C-5.87242187 25.15882812 -5.86984375 26.19265625 -5.8671875 27.2578125 C-6 30 -6 30 -7 33 C-6.67 33.598125 -6.34 34.19625 -6 34.8125 C-4.63182245 37.80538839 -5.38037666 39.83303625 -6 43 C-5.67 43.66 -5.34 44.32 -5 45 C-5.23601812 46.8560882 -5.47609011 48.71174269 -5.73556519 50.56469727 C-6.24630897 55.26837345 -6.12083352 59.99284792 -6.09765625 64.71875 C-6.0962413 65.81723267 -6.09482635 66.91571533 -6.09336853 68.04748535 C-6.08780257 71.53168543 -6.07525639 75.01581958 -6.0625 78.5 C-6.0574806 80.8723949 -6.05291846 83.24479082 -6.04882812 85.6171875 C-6.0378443 91.41148056 -6.0211403 97.20573557 -6 103 C-5.34 103 -4.68 103 -4 103 C-4 101.02 -4 99.04 -4 97 C-3.34 97.33 -2.68 97.66 -2 98 C-2.01160156 99.02480469 -2.02320313 100.04960938 -2.03515625 101.10546875 C-2.04454022 102.466144 -2.05363977 103.82682124 -2.0625 105.1875 C-2.07087891 105.86103516 -2.07925781 106.53457031 -2.08789062 107.22851562 C-2.10606538 110.95434131 -1.89299392 114.3788042 -1 118 C-1.99 117.67 -2.98 117.34 -4 117 C-5.1875 114.4375 -5.1875 114.4375 -6 112 C-6.59108633 120.01133083 -7.14101233 127.96229722 -7 136 C-7.66 135.67 -8.32 135.34 -9 135 C-9.17027815 128.70546382 -9.32974849 122.4107161 -9.48217773 116.11572266 C-9.53510618 113.98024489 -9.59038769 111.84482396 -9.64819336 109.70947266 C-9.93274474 99.14395611 -10.18923988 88.71523134 -9.24682617 78.17871094 C-8.7945932 72.35470171 -8.85563599 66.52574883 -8.875 60.6875 C-8.86919922 58.8631543 -8.86919922 58.8631543 -8.86328125 57.00195312 C-8.86521484 55.27428711 -8.86521484 55.27428711 -8.8671875 53.51171875 C-8.86831543 52.47490967 -8.86944336 51.43810059 -8.87060547 50.36987305 C-8.73314194 48.0443565 -8.73314194 48.0443565 -10 47 C-10.07389855 45.6335539 -10.07824773 44.26323802 -10.0534668 42.89501953 C-10.0398259 42.02386505 -10.026185 41.15271057 -10.01213074 40.25515747 C-9.99136978 39.30728363 -9.97060883 38.35940979 -9.94921875 37.3828125 C-9.9303511 36.41471649 -9.91148346 35.44662048 -9.89204407 34.44918823 C-9.8500766 32.39624441 -9.80533099 30.34335582 -9.75805664 28.29052734 C-9.68795961 25.14562052 -9.6335751 22.00069615 -9.58007812 18.85546875 C-9.53742286 16.86456243 -9.49383382 14.87367586 -9.44921875 12.8828125 C-9.43453049 11.93898712 -9.41984222 10.99516174 -9.40470886 10.0227356 C-9.38161148 9.14527679 -9.3585141 8.26781799 -9.3347168 7.36376953 C-9.31837692 6.5917923 -9.30203705 5.81981506 -9.28520203 5.02444458 C-9 3 -9 3 -7 0 C-4.02096037 -1.15317663 -3.13440869 -1.0448029 0 0 Z " fill="#4EA29E" transform="translate(11,6)"/>
<path d="M0 0 C10.62231427 -0.09264562 21.24453255 -0.1637374 31.86716843 -0.20724869 C36.79961153 -0.2281311 41.73177839 -0.2564607 46.6640625 -0.30175781 C51.42325814 -0.34519221 56.18218793 -0.36913218 60.94156647 -0.37950897 C62.75809159 -0.38690467 64.57460203 -0.40134669 66.3910141 -0.42292023 C68.93384844 -0.45192266 71.47558179 -0.4559574 74.01855469 -0.45410156 C74.77093414 -0.46848267 75.5233136 -0.48286377 76.29849243 -0.49768066 C79.63938177 -0.47126588 81.66858996 -0.22411737 84.46372986 1.66610718 C86.3785982 4.57516422 86.52150751 6.32420738 86.56176758 9.79638672 C86.5847139 10.966362 86.60766022 12.13633728 86.63130188 13.34176636 C86.63566757 14.60828033 86.64003326 15.87479431 86.64453125 17.1796875 C86.66343918 18.49800568 86.68234711 19.81632385 86.701828 21.17459106 C86.7411834 23.97725315 86.76765254 26.77962976 86.78393555 29.58251953 C86.80453345 33.10576079 86.84699007 36.62824822 86.89810371 40.15116501 C87.12665864 56.1295305 86.97619693 72.04452122 86 88 C85.67 88 85.34 88 85 88 C83.99767896 79.83824292 83.88972828 71.71346942 83.875 63.5 C83.87048828 62.43716797 83.86597656 61.37433594 83.86132812 60.27929688 C83.86326172 59.26931641 83.86519531 58.25933594 83.8671875 57.21875 C83.86831543 56.31060547 83.86944336 55.40246094 83.87060547 54.46679688 C83.9911332 52.16903803 84.35337992 50.20120519 85 48 C84.34 47.67 83.68 47.34 83 47 C82.92572162 43.65747276 82.93453047 41.1964086 84 38 C83.76855368 36.36935545 83.53217056 34.73920552 83.26660156 33.11376953 C82.73610476 28.90768774 82.85712713 24.67039156 82.875 20.4375 C82.87113281 19.51775391 82.86726563 18.59800781 82.86328125 17.65039062 C82.86998677 12.98670249 83.0383951 8.58670272 84 4 C83.21625 3.855625 82.4325 3.71125 81.625 3.5625 C79 3 79 3 77 2 C76.67 2.66 76.34 3.32 76 4 C75.34 4 74.68 4 74 4 C74 3.34 74 2.68 74 2 C73.29230469 2.165 72.58460938 2.33 71.85546875 2.5 C68.92736751 3.01271814 66.28031101 3.06478169 63.3125 3 C59.50712855 2.82278314 59.50712855 2.82278314 56 4 C54.33380554 4.0396713 52.66608987 4.04384447 51 4 C51 3.34 51 2.68 51 2 C49.60587891 2.10828125 49.60587891 2.10828125 48.18359375 2.21875 C46.94738281 2.3115625 45.71117187 2.404375 44.4375 2.5 C42.61025391 2.63921875 42.61025391 2.63921875 40.74609375 2.78125 C37.15365784 2.99102728 33.59752457 3.03704015 30 3 C30 3.66 30 4.32 30 5 C29.410979 4.91435791 28.82195801 4.82871582 28.21508789 4.74047852 C25.49777882 4.34628371 22.7801438 3.95438023 20.0625 3.5625 C19.13630859 3.42779297 18.21011719 3.29308594 17.25585938 3.15429688 C11.51218568 2.32801399 5.77076442 1.60962947 0 1 C0 0.67 0 0.34 0 0 Z " fill="#55A4A2" transform="translate(74,4)"/>
<path d="M0 0 C0.33 0 0.66 0 1 0 C1.13095867 7.98016253 1.26138865 15.96033346 1.39115143 23.94051552 C1.45142762 27.64638311 1.51188306 31.35224759 1.57275391 35.05810547 C1.63153613 38.63721414 1.68983999 42.21633033 1.74781799 45.79545212 C1.76997488 47.15812836 1.79230153 48.52080186 1.81480408 49.88347244 C1.8463922 51.79812131 1.87731023 53.7127812 1.90820312 55.62744141 C1.92596802 56.71554108 1.94373291 57.80364075 1.96203613 58.92471313 C1.99938484 61.95016821 2.00667217 64.97434942 2 68 C2.66 68.33 3.32 68.66 4 69 C4 69.66 4 70.32 4 71 C6.71134519 72.35567259 8.82246453 72.12282363 11.85916138 72.12025452 C13.10720551 72.12162918 14.35524963 72.12300385 15.64111328 72.12442017 C17.03173852 72.12088079 18.42236352 72.11724598 19.81298828 72.11352539 C21.2713928 72.11324344 22.72979747 72.1134014 24.1882019 72.1139679 C28.15491147 72.11425557 32.12159099 72.10836364 36.08829355 72.10139394 C40.2309698 72.09515546 44.37364669 72.09455621 48.5163269 72.09336853 C56.36444532 72.09025668 64.21254986 72.08204525 72.06066215 72.07201904 C80.99403121 72.06085338 89.92740093 72.05534631 98.86077523 72.05032361 C117.2405247 72.03986252 135.62026124 72.02226589 154 72 C154.33 71.34 154.66 70.68 155 70 C155.66 69.34 156.32 68.68 157 68 C157.24395651 66.11103376 157.24395651 66.11103376 157.125 63.97265625 C157.10179687 62.78446289 157.10179687 62.78446289 157.078125 61.57226562 C157.02616314 59.90299101 156.97408038 58.23372015 156.921875 56.56445312 C156.89867187 55.37432617 156.89867187 55.37432617 156.875 54.16015625 C156.85179687 53.43449463 156.82859375 52.70883301 156.8046875 51.96118164 C157 50 157 50 159 47 C159.02899599 50.77081722 159.04679729 54.54160583 159.0625 58.3125 C159.07087891 59.38435547 159.07925781 60.45621094 159.08789062 61.56054688 C159.09111328 62.58857422 159.09433594 63.61660156 159.09765625 64.67578125 C159.10289307 65.62364502 159.10812988 66.57150879 159.11352539 67.5480957 C159 70 159 70 158 73 C149.15124472 73.8982501 140.40094257 74.13822587 131.51074219 74.11352539 C130.10012311 74.11324258 128.68950388 74.11340309 127.27888489 74.1139679 C123.48838085 74.11425219 119.69790913 74.10841546 115.90741253 74.10139394 C111.9316239 74.09509865 107.95583435 74.09455175 103.9800415 74.09336853 C96.46870741 74.09027329 88.95738805 74.0820845 81.44606042 74.07201904 C72.88730131 74.06080147 64.32854146 74.05533329 55.76977682 74.05032361 C38.17984272 74.03990019 20.58992292 74.0223361 3 74 C0.39961626 69.48530515 -0.36952533 66.26820971 -0.34057617 61.07666016 C-0.34101425 60.4125412 -0.34145233 59.74842224 -0.34190369 59.06417847 C-0.33982875 56.8888312 -0.31656086 54.7142736 -0.29296875 52.5390625 C-0.28736814 51.0230654 -0.28310024 49.50706284 -0.28010559 47.99105835 C-0.26869329 44.01581632 -0.23925776 40.04090712 -0.20599365 36.0657959 C-0.17521441 32.00354514 -0.16158353 27.9412402 -0.14648438 23.87890625 C-0.11438413 15.9191187 -0.06323213 7.95960085 0 0 Z " fill="#56B0AD" transform="translate(1,96)"/>
<path d="M0 0 C4.27411651 0.48469363 5.95055114 1.541098 8.625 4.875 C12.61166142 9.76362102 14.99013181 12.22998287 21.0625 14.05859375 C25.63717475 16.28136918 26.89722635 20.92194605 28.5625 25.4375 C28.97628906 26.54996094 29.39007813 27.66242188 29.81640625 28.80859375 C30.40228516 30.38833984 30.40228516 30.38833984 31 32 C31.66086893 33.66897408 32.32530002 35.33656916 33 37 C27.98737507 33.88738391 23.83096309 30.24753356 19.5625 26.1875 C18.93279297 25.59646484 18.30308594 25.00542969 17.65429688 24.39648438 C4.79880511 12.28087702 4.79880511 12.28087702 2.0625 7.8125 C1.66160156 7.17957031 1.26070312 6.54664062 0.84765625 5.89453125 C0 4 0 4 0 0 Z " fill="#EFFBFC" transform="translate(10,63)"/>
<path d="M0 0 C2.14673568 3.50347263 2.32832389 6.42984282 2.375 10.5 C2.40335938 11.6240625 2.43171875 12.748125 2.4609375 13.90625 C2 17 2 17 0.6484375 19.390625 C-3.60581825 21.97580696 -7.88318187 21.41849171 -12.75 21.25 C-14.22533203 21.22292969 -14.22533203 21.22292969 -15.73046875 21.1953125 C-18.15463783 21.14824126 -20.57682059 21.08250742 -23 21 C-18.3515625 16.0390625 -18.3515625 16.0390625 -15.1875 15.6875 C-14.465625 15.790625 -13.74375 15.89375 -13 16 C-12.67 15.01 -12.34 14.02 -12 13 C-10.66666667 12.66666667 -9.33333333 12.33333333 -8 12 C-7.67 11.01 -7.34 10.02 -7 9 C-6.34 9 -5.68 9 -5 9 C-4.731875 8.443125 -4.46375 7.88625 -4.1875 7.3125 C-2.89877353 4.80287477 -1.47073522 2.40665764 0 0 Z " fill="#3C9795" transform="translate(157,147)"/>
<path d="M0 0 C4.75162763 0.37695585 9.3848152 0.77050743 14 2 C21.46134412 3.81455556 29.36004678 3.68681961 37 4 C37 4.33 37 4.66 37 5 C33.70841135 5.05905417 30.41696244 5.09394375 27.125 5.125 C26.2071875 5.14175781 25.289375 5.15851563 24.34375 5.17578125 C17.99187394 5.22051277 12.17389964 4.48851563 6 3 C6.66 5.31 7.32 7.62 8 10 C9.75032844 9.85816304 11.50025534 9.71136571 13.25 9.5625 C14.22453125 9.48128906 15.1990625 9.40007812 16.203125 9.31640625 C18.56461753 9.04925416 20.71901065 8.64628032 23 8 C23.495 9.485 23.495 9.485 24 11 C25.205354 10.96447021 26.41070801 10.92894043 27.65258789 10.89233398 C32.1457574 10.76147488 36.63911456 10.63848998 41.13256836 10.51782227 C43.0733832 10.46461603 45.01414156 10.409305 46.95483398 10.35180664 C49.75231758 10.26929558 52.54992018 10.19447992 55.34765625 10.12109375 C56.2083522 10.09405869 57.06904816 10.06702362 57.95582581 10.03916931 C62.77584321 9.92108834 67.24855522 10.16744596 72 11 C72 11.33 72 11.66 72 12 C44.28 12 16.56 12 -12 12 C-12 11.34 -12 10.68 -12 10 C-10.75283203 9.99613281 -10.75283203 9.99613281 -9.48046875 9.9921875 C-6.21814355 9.87609052 -3.192901 9.6907092 0 9 C2.39248595 6.14397465 2.39248595 6.14397465 3 3 C2.01 2.01 1.02 1.02 0 0 Z " fill="#30ABA5" transform="translate(52,157)"/>
<path d="M0 0 C0.33 0 0.66 0 1 0 C1.90155201 5.38268891 2.1429908 10.55689015 2.12939453 16.00878906 C2.13114685 16.88281372 2.13289917 17.75683838 2.13470459 18.65734863 C2.13908191 21.52679468 2.1362007 24.3961784 2.1328125 27.265625 C2.13348648 29.26625582 2.13445729 31.26688655 2.13571167 33.26751709 C2.13718285 37.45016259 2.13505181 41.63278668 2.13037109 45.81542969 C2.12465936 51.18119118 2.12796559 56.54690282 2.13394356 61.91266251 C2.13755222 66.03896462 2.13640943 70.16525485 2.13381577 74.29155731 C2.13314811 76.27074947 2.1339693 78.2499427 2.13629532 80.22913361 C2.13882842 82.989048 2.13497256 85.74888077 2.12939453 88.50878906 C2.13141876 89.32857239 2.13344299 90.14835571 2.13552856 90.99298096 C2.12328399 94.25528507 2.03907979 96.88276062 1 100 C-3.62 100 -8.24 100 -13 100 C-13 99.67 -13 99.34 -13 99 C-9.04 99 -5.08 99 -1 99 C-0.67 66.33 -0.34 33.66 0 0 Z " fill="#66B6B3" transform="translate(160,70)"/>
<path d="M0 0 C9.34405757 0.90426364 18.67105898 1.95328875 28 3 C28 3.33 28 3.66 28 4 C28.83402344 4.06058594 29.66804688 4.12117187 30.52734375 4.18359375 C39.0718355 4.81978157 47.55998307 5.48512517 56 7 C56 7.33 56 7.66 56 8 C43.46 8 30.92 8 18 8 C17.67 7.34 17.34 6.68 17 6 C16.01 5.67 15.02 5.34 14 5 C13.67 5.66 13.34 6.32 13 7 C9.37 7 5.74 7 2 7 C0 3 0 3 0 0 Z " fill="#17A69F" transform="translate(58,160)"/>
<path d="M0 0 C1.32 0.33 2.64 0.66 4 1 C4 11.89 4 22.78 4 34 C-1.64050788 28.35949212 -4.32027404 22.38708953 -4.5625 14.375 C-4.35073608 8.60272551 -3.05167214 4.86360247 0 0 Z " fill="#C2E7ED" transform="translate(23,96)"/>
<path d="M0 0 C1.10844919 3.32534757 0.84454356 5.62182575 0 9 C0.66 9.33 1.32 9.66 2 10 C-7.18082673 15.24618671 -18.34582873 18.86972827 -29 18 C-28.38125 17.773125 -27.7625 17.54625 -27.125 17.3125 C-24.75843015 16.16617121 -24.75843015 16.16617121 -24.18359375 13.51171875 C-23 11 -23 11 -20.71484375 10.03125 C-19.79832031 9.8559375 -18.88179687 9.680625 -17.9375 9.5 C-11.01354159 7.89866402 -4.90357307 5.27134105 0 0 Z " fill="#EEF5F5" transform="translate(113,55)"/>
<path d="M0 0 C6.60960459 0.3164555 9.84338061 1.68003104 14.5625 6.25 C15.10712891 6.72824219 15.65175781 7.20648438 16.21289062 7.69921875 C17.75390625 9.140625 17.75390625 9.140625 20 12 C19.83984375 14.859375 19.83984375 14.859375 19 17 C16.953125 17.859375 16.953125 17.859375 14 18 C11.28758116 16.42214721 9.06079521 14.35943961 6.75 12.25 C6.11320312 11.69828125 5.47640625 11.1465625 4.8203125 10.578125 C0.14735287 6.4420586 0.14735287 6.4420586 -1 3 C-0.34 3 0.32 3 1 3 C0.67 2.01 0.34 1.02 0 0 Z " fill="#31C4B9" transform="translate(20,86)"/>
<path d="M0 0 C0.33 0.66 0.66 1.32 1 2 C0.67 2.66 0.34 3.32 0 4 C0.66 4 1.32 4 2 4 C2 3.34 2 2.68 2 2 C2.99 2 3.98 2 5 2 C5.6875 4.75 5.6875 4.75 6 8 C5.51789062 8.62648438 5.03578125 9.25296875 4.5390625 9.8984375 C1.86879485 13.54464053 2.58336733 17.65609217 3 22 C3.87100549 25.4614054 3.87100549 25.4614054 5 28 C1.51175659 27.7416116 0.75785753 26.73533264 -1.6875 24.0625 C-5.50928369 19.0012189 -5.53982703 15.22662562 -5 9 C-3.99938752 5.43288148 -2.65172975 2.65172975 0 0 Z " fill="#FAD28C" transform="translate(43,30)"/>
<path d="M0 0 C2.475 0.495 2.475 0.495 5 1 C5.05063235 8.20822151 5.08570496 15.4163973 5.10986328 22.62475586 C5.11993245 25.07789829 5.13358861 27.53102869 5.15087891 29.98413086 C5.17508679 33.50637783 5.18647388 37.02846639 5.1953125 40.55078125 C5.20563507 41.65086014 5.21595764 42.75093903 5.22659302 43.88435364 C5.22674408 44.90518539 5.22689514 45.92601715 5.22705078 46.9777832 C5.231492 47.87713089 5.23593323 48.77647858 5.24050903 49.70307922 C5 52 5 52 3 55 C2.83125237 51.1250877 2.66537155 47.25005773 2.5 43.375 C2.45230469 42.28058594 2.40460938 41.18617188 2.35546875 40.05859375 C2.31035156 38.99511719 2.26523438 37.93164062 2.21875 36.8359375 C2.17685547 35.86188965 2.13496094 34.8878418 2.09179688 33.88427734 C2.02752182 31.86474134 2.01777972 29.84307392 2.04882812 27.82275391 C2.13967894 24.91941591 2.13967894 24.91941591 1 22 C1.66 22 2.32 22 3 22 C2.39525455 18.06348054 2.39525455 18.06348054 1.5 14.1875 C0.85859843 11.38136815 0.65579788 8.6190579 0.4375 5.75 C0.35371094 4.67234375 0.26992187 3.5946875 0.18359375 2.484375 C0.12300781 1.66453125 0.06242188 0.8446875 0 0 Z " fill="#3AACA6" transform="translate(155,91)"/>
<path d="M0 0 C19.14 0 38.28 0 58 0 C54.36570812 1.81714594 51.5531914 2.65759066 47.625 3.5 C43.30422634 4.43093952 39.17270882 5.53766096 35 7 C34.505 5.515 34.505 5.515 34 4 C34.33 3.34 34.66 2.68 35 2 C34.36191406 2.08378906 33.72382812 2.16757813 33.06640625 2.25390625 C31.82697266 2.40666016 31.82697266 2.40666016 30.5625 2.5625 C29.73878906 2.66691406 28.91507813 2.77132813 28.06640625 2.87890625 C27.04353516 2.93884766 27.04353516 2.93884766 26 3 C25.67 2.67 25.34 2.34 25 2 C23.47469122 2.11893246 21.95381478 2.29628137 20.4375 2.5 C15.67244621 3.02945042 11.72428721 2.77447331 7 2 C5.66708014 1.80958288 4.33376173 1.62192797 3 1.4375 C2.01 1.293125 1.02 1.14875 0 1 C0 0.67 0 0.34 0 0 Z " fill="#4BA09E" transform="translate(12,5)"/>
<path d="M0 0 C0.66 0 1.32 0 2 0 C2 3.3 2 6.6 2 10 C2.66 10 3.32 10 4 10 C4 8.02 4 6.04 4 4 C4.66 4.33 5.32 4.66 6 5 C5.98839844 6.02480469 5.97679687 7.04960938 5.96484375 8.10546875 C5.95545978 9.466144 5.94636023 10.82682124 5.9375 12.1875 C5.92912109 12.86103516 5.92074219 13.53457031 5.91210938 14.22851562 C5.89393462 17.95434131 6.10700608 21.3788042 7 25 C6.01 24.67 5.02 24.34 4 24 C2.8125 21.4375 2.8125 21.4375 2 19 C1.40891367 27.01133083 0.85898767 34.96229722 1 43 C0.34 42.67 -0.32 42.34 -1 42 C-1.02477057 36.82218777 -1.04289347 31.64441025 -1.05493164 26.46655273 C-1.0599517 24.70612995 -1.0667691 22.94571132 -1.07543945 21.18530273 C-1.08760703 18.65086846 -1.09325166 16.11648946 -1.09765625 13.58203125 C-1.10281754 12.79850784 -1.10797882 12.01498444 -1.11329651 11.2077179 C-1.11369066 7.34408861 -0.9444276 3.754835 0 0 Z " fill="#37ABA4" transform="translate(3,99)"/>
<path d="M0 0 C6.0546875 -0.1953125 6.0546875 -0.1953125 8 0 C8.66 0.66 9.32 1.32 10 2 C9.67 2.66 9.34 3.32 9 4 C10.98 3.67 12.96 3.34 15 3 C14.67 3.99 14.34 4.98 14 6 C15.65 6 17.3 6 19 6 C17.125 10.75 17.125 10.75 16 13 C11.24539471 12.70283717 8.46368168 10.3204639 4.8671875 7.47265625 C3.30232066 6.23844119 1.65828585 5.1055239 0 4 C0 2.68 0 1.36 0 0 Z " fill="#2F9F9D" transform="translate(127,78)"/>
<path d="M0 0 C4.20521837 0.49048859 5.91034019 1.47633638 8.5625 4.75 C9.15289062 5.46671875 9.74328125 6.1834375 10.3515625 6.921875 C10.89554688 7.60765625 11.43953125 8.2934375 12 9 C12.804375 9.99 13.60875 10.98 14.4375 12 C15.2109375 12.99 15.2109375 12.99 16 14 C14.35 15.32 12.7 16.64 11 18 C9.72403068 16.60886005 8.45445352 15.21185587 7.1875 13.8125 C6.47980469 13.03519531 5.77210937 12.25789063 5.04296875 11.45703125 C1.75364052 7.50103229 0 5.24141704 0 0 Z " fill="#9DCCDC" transform="translate(10,63)"/>
<path d="M0 0 C0.33 0.66 0.66 1.32 1 2 C3.80980673 2.69227032 3.80980673 2.69227032 7.0625 3.125 C8.16722656 3.29257813 9.27195313 3.46015625 10.41015625 3.6328125 C11.26480469 3.75398437 12.11945312 3.87515625 13 4 C13 4.66 13 5.32 13 6 C8.35526018 6.07416067 3.71086501 6.12860615 -0.93432617 6.16479492 C-2.51446536 6.17988094 -4.09456269 6.2003525 -5.67456055 6.22631836 C-7.94590585 6.26271126 -10.21669759 6.27972762 -12.48828125 6.29296875 C-13.54780754 6.31619453 -13.54780754 6.31619453 -14.6287384 6.33988953 C-19.55691778 6.34158031 -19.55691778 6.34158031 -21.96948242 4.48168945 C-22.30955322 3.99273193 -22.64962402 3.50377441 -23 3 C-21.8553125 3.0309375 -21.8553125 3.0309375 -20.6875 3.0625 C-17.89814214 3.12942841 -17.89814214 3.12942841 -15 2 C-12.99759451 2.31856451 -10.99788438 2.65421232 -9 3 C-5.3324787 3.33417929 -5.3324787 3.33417929 -2 3 C-1.34 2.01 -0.68 1.02 0 0 Z " fill="#52A3A1" transform="translate(27,163)"/>
<path d="M0 0 C0.33 0 0.66 0 1 0 C1.02899599 3.77081722 1.04679729 7.54160583 1.0625 11.3125 C1.07087891 12.38435547 1.07925781 13.45621094 1.08789062 14.56054688 C1.09111328 15.58857422 1.09433594 16.61660156 1.09765625 17.67578125 C1.10289307 18.62364502 1.10812988 19.57150879 1.11352539 20.5480957 C1 23 1 23 0 26 C-11.94878968 27.46739522 -23.98594227 27.0947251 -36 27 C-35.67 26.34 -35.34 25.68 -35 25 C-24.77 25 -14.54 25 -4 25 C-3.67 24.34 -3.34 23.68 -3 23 C-2.34 22.34 -1.68 21.68 -1 21 C-0.73975775 19.11183351 -0.73975775 19.11183351 -0.83984375 16.97265625 C-0.85080078 16.18052734 -0.86175781 15.38839844 -0.87304688 14.57226562 C-0.90495117 13.32993164 -0.90495117 13.32993164 -0.9375 12.0625 C-0.97199466 10.42847507 -1.0021206 8.79435059 -1.02734375 7.16015625 C-1.05429321 6.07166382 -1.05429321 6.07166382 -1.08178711 4.96118164 C-1 3 -1 3 0 0 Z " fill="#59A8A5" transform="translate(159,143)"/>
<path d="M0 0 C4.52615993 3.67832017 8.39424999 7.41086363 12 12 C10.02 12 8.04 12 6 12 C6 12.66 6 13.32 6 14 C4.68 14 3.36 14 2 14 C1.18697675 12.54195831 0.37459869 11.08355685 -0.4375 9.625 C-0.88996094 8.81289062 -1.34242187 8.00078125 -1.80859375 7.1640625 C-2.5650536 5.79003378 -3.29854631 4.40290739 -4 3 C-2.68 2.67 -1.36 2.34 0 2 C0 1.34 0 0.68 0 0 Z " fill="#2DB0A8" transform="translate(15,75)"/>
<path d="M0 0 C1.84771695 2.77157542 3.18761961 5.41276314 4.5625 8.4375 C5.21412109 9.85869141 5.21412109 9.85869141 5.87890625 11.30859375 C6.81387795 13.55317739 7.5010393 15.62853508 8 18 C2.03607435 14.39025553 -2.89628532 9.72043176 -8 5 C-5 3 -5 3 -2.875 2.5 C-2.25625 2.335 -1.6375 2.17 -1 2 C-0.67 1.34 -0.34 0.68 0 0 Z " fill="#E1F5F6" transform="translate(35,82)"/>
<path d="M0 0 C0.69738281 0.00451172 1.39476563 0.00902344 2.11328125 0.01367188 C3.82555803 0.0253998 5.53779033 0.04333347 7.25 0.0625 C6.59 0.7225 5.93 1.3825 5.25 2.0625 C4.26 2.0625 3.27 2.0625 2.25 2.0625 C2.91 4.0425 3.57 6.0225 4.25 8.0625 C4.91 7.7325 5.57 7.4025 6.25 7.0625 C6.58 8.7125 6.91 10.3625 7.25 12.0625 C6.29738281 11.58039062 5.34476563 11.09828125 4.36328125 10.6015625 C3.09640841 9.96343396 1.82947829 9.32541914 0.5625 8.6875 C-0.06333984 8.37039063 -0.68917969 8.05328125 -1.33398438 7.7265625 C-4.75364701 6.00777919 -8.17007074 4.41780783 -11.75 3.0625 C-11.75 2.4025 -11.75 1.7425 -11.75 1.0625 C-7.88276369 -0.20332219 -4.01848738 -0.0493765 0 0 Z " fill="#449D99" transform="translate(115.75,5.9375)"/>
<path d="M0 0 C0 0.66 0 1.32 0 2 C-22.24447701 12.9220018 -22.24447701 12.9220018 -34 12 C-34 11.67 -34 11.34 -34 11 C-33.39414063 10.84144531 -32.78828125 10.68289062 -32.1640625 10.51953125 C-25.67865295 8.71359413 -19.92162562 6.18759847 -14 3 C-14 3.66 -14 4.32 -14 5 C-13.24074219 4.6390625 -12.48148438 4.278125 -11.69921875 3.90625 C-10.70535156 3.4421875 -9.71148437 2.978125 -8.6875 2.5 C-7.70136719 2.0359375 -6.71523437 1.571875 -5.69921875 1.09375 C-3 0 -3 0 0 0 Z " fill="#BEE6ED" transform="translate(125,140)"/>
<path d="M0 0 C0 1.98 0 3.96 0 6 C-5.61 6 -11.22 6 -17 6 C-16.67 4.68 -16.34 3.36 -16 2 C-10.91235741 -0.60904748 -5.56726505 -0.198045 0 0 Z " fill="#CCF2F2" transform="translate(26,54)"/>
<path d="M0 0 C0.66 1.32 1.32 2.64 2 4 C2.99 3.67 3.98 3.34 5 3 C5.64771508 4.91603157 6.29309948 6.83285113 6.9375 8.75 C7.29714844 9.81734375 7.65679687 10.8846875 8.02734375 11.984375 C8.77982119 14.31735725 9.44977244 16.61374995 10 19 C6.51175659 18.7416116 5.75785753 17.73533264 3.3125 15.0625 C0.37303893 11.16970021 -0.12368996 9.64781689 -0.0625 4.875 C-0.05347656 3.96492188 -0.04445312 3.05484375 -0.03515625 2.1171875 C-0.02355469 1.41851562 -0.01195312 0.71984375 0 0 Z " fill="#FADB97" transform="translate(38,39)"/>
<path d="M0 0 C0.66 0.33 1.32 0.66 2 1 C2.10832169 3.08218362 2.18573541 5.16599129 2.25 7.25 C2.29640625 8.41015625 2.3428125 9.5703125 2.390625 10.765625 C2 14 2 14 0.65625 16.40625 C-3.60855399 18.96513239 -7.88549376 18.41841167 -12.75 18.25 C-14.22533203 18.22292969 -14.22533203 18.22292969 -15.73046875 18.1953125 C-18.15463783 18.14824126 -20.57682059 18.08250742 -23 18 C-22.67 17.34 -22.34 16.68 -22 16 C-20.14453125 15.5859375 -20.14453125 15.5859375 -17.8125 15.375 C-17.00554687 15.30152344 -16.19859375 15.22804687 -15.3671875 15.15234375 C-12.57206381 14.97245955 -9.79984466 14.92820911 -7 15 C-7 15.66 -7 16.32 -7 17 C-5.68 17 -4.36 17 -3 17 C-3 16.01 -3 15.02 -3 14 C-2.50886719 13.56042969 -2.01773438 13.12085938 -1.51171875 12.66796875 C0.66712553 10.26392093 0.29971288 8.49186496 0.1875 5.3125 C0.16042969 4.31863281 0.13335937 3.32476562 0.10546875 2.30078125 C0.05326172 1.16189453 0.05326172 1.16189453 0 0 Z " fill="#499D9B" transform="translate(157,150)"/>
<path d="M0 0 C0.7537793 0.00443115 1.50755859 0.0088623 2.28417969 0.01342773 C3.0734082 0.03477783 3.86263672 0.05612793 4.67578125 0.078125 C5.4843457 0.08980713 6.29291016 0.10148926 7.12597656 0.11352539 C14.53382451 0.25621387 21.68794844 1.01780885 28.98828125 2.328125 C28.98828125 2.658125 28.98828125 2.988125 28.98828125 3.328125 C16.77828125 3.328125 4.56828125 3.328125 -8.01171875 3.328125 C-3.50951439 -0.04852827 -3.50951439 -0.04852827 0 0 Z " fill="#27A8A4" transform="translate(85.01171875,164.671875)"/>
<path d="M0 0 C0.33 0 0.66 0 1 0 C1 8.58 1 17.16 1 26 C0.01 25.67 -0.98 25.34 -2 25 C-3.32515404 21.81674955 -2.91428454 18.98635413 -2.5 15.625 C-2.0664564 11.52554341 -2.01544737 8.04760527 -3 4 C-2.34 3.67 -1.68 3.34 -1 3 C-0.67 2.01 -0.34 1.02 0 0 Z " fill="#459B9A" transform="translate(158,65)"/>
<path d="M0 0 C4.75162763 0.37695585 9.3848152 0.77050743 14 2 C21.46134412 3.81455556 29.36004678 3.68681961 37 4 C37 4.33 37 4.66 37 5 C33.70841135 5.05905417 30.41696244 5.09394375 27.125 5.125 C26.2071875 5.14175781 25.289375 5.15851563 24.34375 5.17578125 C17.99187394 5.22051277 12.17389964 4.48851563 6 3 C6 3.66 6 4.32 6 5 C5.01 5 4.02 5 3 5 C3 4.34 3 3.68 3 3 C1.54166642 1.37485532 1.54166642 1.37485532 0 0 Z " fill="#4198A0" transform="translate(52,157)"/>
<path d="M0 0 C3 3.75 3 3.75 3 6 C3.99 6.33 4.98 6.66 6 7 C6.86625 8.36125 6.86625 8.36125 7.75 9.75 C9.77650348 12.67717169 10.90776323 13.80222601 13.75 15.6875 C14.8225 16.450625 15.895 17.21375 17 18 C17 18.99 17 19.98 17 21 C17.99 21 18.98 21 20 21 C20 21.66 20 22.32 20 23 C18.3125 22.875 18.3125 22.875 16 22 C14.76429291 20.53666266 13.53273929 19.0684723 12.359375 17.5546875 C10.27193999 15.16733366 7.66595422 13.68071027 5 12 C3.125 10.4375 3.125 10.4375 2 9 C2 8.01 2 7.02 2 6 C1.34 6 0.68 6 0 6 C0 4.02 0 2.04 0 0 Z " fill="#2B9C97" transform="translate(4,138)"/>
<path d="M0 0 C3.11259604 0.345844 4.82872813 0.87379967 7.375 2.75 C9 5 9 5 8.75 7.75 C8.5025 8.4925 8.255 9.235 8 10 C6.68 10 5.36 10 4 10 C2 6.25 2 6.25 2 4 C1.01 4 0.02 4 -1 4 C-0.67 2.68 -0.34 1.36 0 0 Z " fill="#2EC8B8" transform="translate(31,93)"/>
<path d="M0 0 C3 1 3 1 4 3 C4.13415472 5.6723621 4.04318541 8.32250488 4 11 C-0.71906188 11 -2.27037031 9.71245796 -6 7 C-3.92446352 6.4465236 -2.15634036 6 0 6 C0 4.02 0 2.04 0 0 Z " fill="#CAECF3" transform="translate(29,134)"/>
<path d="M0 0 C0 0.99 0 1.98 0 3 C-2.18522816 3.96380382 -4.37295386 4.92109439 -6.5625 5.875 C-7.47612305 6.27912109 -7.47612305 6.27912109 -8.40820312 6.69140625 C-17.23990441 10.52314966 -25.4282734 12.18768091 -35 12 C-35 11.67 -35 11.34 -35 11 C-33.9584375 10.86464844 -32.916875 10.72929687 -31.84375 10.58984375 C-20.18529636 8.8994981 -10.5041293 5.25206465 0 0 Z " fill="#3C979C" transform="translate(126,149)"/>
<path d="M0 0 C3.96 1.98 7.92 3.96 12 6 C12 6.33 12 6.66 12 7 C10.02 7 8.04 7 6 7 C5.67 8.65 5.34 10.3 5 12 C1.125 8.25 1.125 8.25 0 6 C0 4.02 0 2.04 0 0 Z " fill="#E9FAFB" transform="translate(59,117)"/>
<path d="M0 0 C1.32 0 2.64 0 4 0 C4 6.6 4 13.2 4 20 C3.34 19.67 2.68 19.34 2 19 C1.56926989 15.9848892 1.25180433 13.03064501 1 10 C0.8150712 8.14557512 0.62764333 6.29139746 0.4375 4.4375 C0.29116422 2.95838296 0.14514409 1.47923446 0 0 Z " fill="#2FA5A0" transform="translate(155,91)"/>
<path d="M0 0 C0.33 0 0.66 0 1 0 C0.979375 0.721875 0.95875 1.44375 0.9375 2.1875 C0.90967386 4.93594945 0.90967386 4.93594945 1.5 7.3125 C2.17147683 10.92168794 2.0621993 14.33024133 2 18 C1.34 17.34 0.68 16.68 0 16 C0.33 15.01 0.66 14.02 1 13 C-1.31 12.34 -3.62 11.68 -6 11 C-5.67 10.34 -5.34 9.68 -5 9 C-4.34 9 -3.68 9 -3 9 C-2.01 6.03 -1.02 3.06 0 0 Z " fill="#449A98" transform="translate(157,46)"/>
<path d="M0 0 C16.8929385 0.77904328 16.8929385 0.77904328 24 3 C24 3.33 24 3.66 24 4 C15.7943963 4.29599372 8.07562173 3.43794854 0 2 C0 1.34 0 0.68 0 0 Z " fill="#FAEDC0" transform="translate(81,19)"/>
<path d="M0 0 C0.33 0 0.66 0 1 0 C1 1.65 1 3.3 1 5 C0.38125 5.2475 -0.2375 5.495 -0.875 5.75 C-3.13023317 6.81201152 -3.13023317 6.81201152 -3.9375 8.9375 C-5.41384616 11.80334842 -7.09840148 12.6873721 -10 14 C-12.1640625 13.57421875 -12.1640625 13.57421875 -14 13 C-13.40832031 12.56429687 -12.81664062 12.12859375 -12.20703125 11.6796875 C-7.47818857 8.1156984 -3.63812082 4.6613423 0 0 Z " fill="#4CA4A8" transform="translate(144,133)"/>
<path d="M0 0 C6.15234375 0.5859375 6.15234375 0.5859375 8 1 C8.33 1.66 8.66 2.32 9 3 C8.01 3 7.02 3 6 3 C4.99782936 6.58327753 4.99782936 6.58327753 6 10 C3.13302508 8.71480435 1.02392288 7.42870746 -1 5 C-1 4.34 -1 3.68 -1 3 C-0.34 3 0.32 3 1 3 C0.67 2.01 0.34 1.02 0 0 Z " fill="#3EBAB7" transform="translate(20,86)"/>
<path d="M0 0 C2.475 0.495 2.475 0.495 5 1 C5.66 4.3 6.32 7.6 7 11 C2.80238746 8.90119373 1.93973636 8.07344636 0 4 C0 2.68 0 1.36 0 0 Z " fill="#D4EDF2" transform="translate(10,63)"/>
<path d="M0 0 C1.85625 0.6496875 1.85625 0.6496875 3.75 1.3125 C9.41697218 3.21052896 15.19021215 4.61390848 21 6 C21 6.33 21 6.66 21 7 C15.59107022 6.6008945 11.04050168 6.07550069 6 4 C4.66216607 4.31478446 3.32796291 4.64587656 2 5 C1.01 4.34 0.02 3.68 -1 3 C-0.67 2.01 -0.34 1.02 0 0 Z " fill="#5BC2B7" transform="translate(43,66)"/>
<path d="M0 0 C0.66 0.33 1.32 0.66 2 1 C1.98839844 2.02480469 1.97679687 3.04960938 1.96484375 4.10546875 C1.95545978 5.466144 1.94636023 6.82682124 1.9375 8.1875 C1.92912109 8.86103516 1.92074219 9.53457031 1.91210938 10.22851562 C1.89393462 13.95434131 2.10700608 17.3788042 3 21 C0 20 0 20 -1.1875 18 C-2.28113733 13.96195446 -2.16301345 10.15684292 -2 6 C-1.34 6 -0.68 6 0 6 C0 4.02 0 2.04 0 0 Z " fill="#4AA39D" transform="translate(7,103)"/>
<path d="M0 0 C-3.75 2 -3.75 2 -6 2 C-6.33 3.32 -6.66 4.64 -7 6 C-7.66 6 -8.32 6 -9 6 C-9 5.01 -9 4.02 -9 3 C-12.34373475 3.55728913 -15.03312999 4.35173889 -18 6 C-18.66 5.34 -19.32 4.68 -20 4 C-13.23537382 0.29556185 -7.5406578 -0.13001134 0 0 Z " fill="#FAD797" transform="translate(75,19)"/>
<path d="M0 0 C0.99 0 1.98 0 3 0 C4.13643966 3.40931897 3.86747764 4.00335456 2.5625 7.1875 C2.27503906 7.90292969 1.98757812 8.61835937 1.69140625 9.35546875 C1.46324219 9.89816406 1.23507813 10.44085938 1 11 C-0.32 9.68 -1.64 8.36 -3 7 C-1.125 1.125 -1.125 1.125 0 0 Z " fill="#439E98" transform="translate(25,25)"/>
<path d="M0 0 C1.5234375 1.34375 1.5234375 1.34375 3 3 C2.625 5.5 2.625 5.5 2 8 C2.33 8.99 2.66 9.98 3 11 C3.06802967 12.72795352 3.08495645 14.45835365 3.0625 16.1875 C3.05347656 17.08855469 3.04445313 17.98960937 3.03515625 18.91796875 C3.02355469 19.60503906 3.01195312 20.29210937 3 21 C2.34 21.33 1.68 21.66 1 22 C0.08839714 14.64206267 -0.11459026 7.41017023 0 0 Z " fill="#4CA19E" transform="translate(2,141)"/>
<path d="M0 0 C0.33 0 0.66 0 1 0 C1.50130606 5.26371362 0.31168629 7.9090934 -3 12 C-3.66 12 -4.32 12 -5 12 C-5 9.36 -5 6.72 -5 4 C-4.34 4 -3.68 4 -3 4 C-2.67 3.34 -2.34 2.68 -2 2 C-2 2.99 -2 3.98 -2 5 C-1.34 5 -0.68 5 0 5 C0 3.35 0 1.7 0 0 Z " fill="#F8DA92" transform="translate(122,38)"/>
<path d="M0 0 C-2.55274874 2.45605371 -3.85890643 2.98802939 -7.453125 3.29296875 C-8.70609375 3.25816406 -9.9590625 3.22335938 -11.25 3.1875 C-12.51328125 3.16042969 -13.7765625 3.13335937 -15.078125 3.10546875 C-16.52445312 3.05326172 -16.52445312 3.05326172 -18 3 C-18 2.34 -18 1.68 -18 1 C-17.34773438 0.93941406 -16.69546875 0.87882813 -16.0234375 0.81640625 C-12.14836421 0.44490217 -8.33459372 0.05974888 -4.5 -0.625 C-2 -1 -2 -1 0 0 Z " fill="#30A39E" transform="translate(138,165)"/>
<path d="M0 0 C7.59 0 15.18 0 23 0 C22.01 0.33 21.02 0.66 20 1 C20 1.66 20 2.32 20 3 C13.4 2.34 6.8 1.68 0 1 C0 0.67 0 0.34 0 0 Z " fill="#5CAAA7" transform="translate(74,4)"/>
<path d="M0 0 C5.94 0 11.88 0 18 0 C17.67 0.66 17.34 1.32 17 2 C16.22914063 1.98839844 15.45828125 1.97679687 14.6640625 1.96484375 C13.66117188 1.95582031 12.65828125 1.94679688 11.625 1.9375 C10.12839844 1.92009766 10.12839844 1.92009766 8.6015625 1.90234375 C6.01567547 1.81993398 6.01567547 1.81993398 4 3 C1.875 2.5625 1.875 2.5625 0 2 C0 1.34 0 0.68 0 0 Z " fill="#4FA19F" transform="translate(126,5)"/>
<path d="M0 0 C0.33 0.66 0.66 1.32 1 2 C3.80980673 2.69227032 3.80980673 2.69227032 7.0625 3.125 C8.71958984 3.37636719 8.71958984 3.37636719 10.41015625 3.6328125 C11.26480469 3.75398437 12.11945312 3.87515625 13 4 C13 4.33 13 4.66 13 5 C7.72 5 2.44 5 -3 5 C-2.01 3.35 -1.02 1.7 0 0 Z " fill="#459E9A" transform="translate(27,163)"/>
<path d="M0 0 C0.82757812 0.42925781 0.82757812 0.42925781 1.671875 0.8671875 C4.15905289 2.07739151 6.67747753 3.1095306 9.25 4.125 C10.14203125 4.47820312 11.0340625 4.83140625 11.953125 5.1953125 C12.62859375 5.46085938 13.3040625 5.72640625 14 6 C14 6.33 14 6.66 14 7 C12.56208484 6.85831863 11.1246763 6.71148957 9.6875 6.5625 C8.88699219 6.48128906 8.08648437 6.40007812 7.26171875 6.31640625 C5 6 5 6 2 5 C0.8125 2.4375 0.8125 2.4375 0 0 Z " fill="#319D98" transform="translate(26,160)"/>
<path d="M0 0 C0.99 0 1.98 0 3 0 C3.1875 2.3125 3.1875 2.3125 3 5 C2.02149805 6.02104551 1.02019573 7.0206121 0 8 C-0.72197162 10.60611077 -0.72197162 10.60611077 -1 13 C-1.33 13 -1.66 13 -2 13 C-2.05447047 11.58376784 -2.09300508 10.16691809 -2.125 8.75 C-2.14820313 7.96109375 -2.17140625 7.1721875 -2.1953125 6.359375 C-1.9828378 3.79268059 -1.28654105 2.2083933 0 0 Z " fill="#32A49B" transform="translate(6,55)"/>
<path d="M0 0 C3 3.75 3 3.75 3 6 C3.66 6 4.32 6 5 6 C5.33 6.66 5.66 7.32 6 8 C6.99 8.33 7.98 8.66 9 9 C9.6875 11.0625 9.6875 11.0625 10 13 C6.65991013 12.75258594 5.7449049 11.7449049 3.3125 9.3125 C0.97050936 6.34549959 0.27170458 3.80386412 0 0 Z " fill="#F8E4C6" transform="translate(38,45)"/>
<path d="M0 0 C0.66 0.99 1.32 1.98 2 3 C1.67 3.66 1.34 4.32 1 5 C0.34 5 -0.32 5 -1 5 C-1 6.98 -1 8.96 -1 11 C-1.99 11.33 -2.98 11.66 -4 12 C-4 9.69 -4 7.38 -4 5 C-3.34 5 -2.68 5 -2 5 C-2 4.01 -2 3.02 -2 2 C-1.34 2 -0.68 2 0 2 C0 1.34 0 0.68 0 0 Z " fill="#2CA098" transform="translate(8,98)"/>
<path d="M0 0 C3.96 0 7.92 0 12 0 C12 0.99 12 1.98 12 3 C7.71 3 3.42 3 -1 3 C-0.67 2.01 -0.34 1.02 0 0 Z " fill="#F9FCFD" transform="translate(12,56)"/>
<path d="M0 0 C1.4540625 0.0309375 1.4540625 0.0309375 2.9375 0.0625 C3.2675 1.0525 3.5975 2.0425 3.9375 3.0625 C2.33634424 3.3118357 0.73129841 3.53628648 -0.875 3.75 C-2.21498047 3.94142578 -2.21498047 3.94142578 -3.58203125 4.13671875 C-6.0625 4.0625 -6.0625 4.0625 -7.88671875 2.58203125 C-8.27472656 2.08058594 -8.66273437 1.57914063 -9.0625 1.0625 C-7.8559375 1.0934375 -7.8559375 1.0934375 -6.625 1.125 C-3.4084517 1.0465476 -3.39792468 0.0693454 0 0 Z " fill="#4A9E9C" transform="translate(13.0625,164.9375)"/>
<path d="M0 0 C3.77518545 1.25839515 4.19759138 2.55903808 6 6 C6.33 6.99 6.66 7.98 7 9 C5.68 9.33 4.36 9.66 3 10 C0 3.375 0 3.375 0 0 Z " fill="#16B09E" transform="translate(8,68)"/>
<path d="M0 0 C5.28 0 10.56 0 16 0 C11.60171741 2.1991413 8.81449408 2.51855059 4 3 C4 2.34 4 1.68 4 1 C3.01 1.33 2.02 1.66 1 2 C0.67 1.34 0.34 0.68 0 0 Z " fill="#53A2A3" transform="translate(54,5)"/>
<path d="M0 0 C6.435 2.97 6.435 2.97 13 6 C7.61613068 7.34596733 4.7986367 5.39931835 0 3 C0 2.01 0 1.02 0 0 Z " fill="#3C9EA0" transform="translate(30,146)"/>
<path d="M0 0 C0.66 0 1.32 0 2 0 C2.125 5.75 2.125 5.75 1 8 C-0.32 8 -1.64 8 -3 8 C-1.125 1.125 -1.125 1.125 0 0 Z " fill="#95DEE3" transform="translate(106,120)"/>
<path d="M0 0 C0.66 0.33 1.32 0.66 2 1 C2 3.31 2 5.62 2 8 C1.01 8 0.02 8 -1 8 C-2.6875 5.5 -2.6875 5.5 -4 3 C-2.68 2.67 -1.36 2.34 0 2 C0 1.34 0 0.68 0 0 Z " fill="#24B1A3" transform="translate(15,75)"/>
<path d="M0 0 C1.98 0.99 3.96 1.98 6 3 C5.67 3.66 5.34 4.32 5 5 C4.01 5 3.02 5 2 5 C2.33 6.32 2.66 7.64 3 9 C1.5 7.875 1.5 7.875 0 6 C-0.1875 2.8125 -0.1875 2.8125 0 0 Z " fill="#D0F8F9" transform="translate(59,117)"/>
<path d="M0 0 C1.423125 0.2784375 1.423125 0.2784375 2.875 0.5625 C5.89868793 1.28686632 5.89868793 1.28686632 8 0 C7.95875 0.763125 7.9175 1.52625 7.875 2.3125 C7.77919176 5.22718416 7.77919176 5.22718416 10 8 C6.05205855 6.32971708 3.18203882 3.8204435 0 1 C0 0.67 0 0.34 0 0 Z " fill="#46BFBA" transform="translate(26,96)"/>
<path d="M0 0 C0.66 0 1.32 0 2 0 C0.125 4.75 0.125 4.75 -1 7 C-3.4375 6.625 -3.4375 6.625 -6 6 C-6.33 5.34 -6.66 4.68 -7 4 C-6.030625 3.71125 -5.06125 3.4225 -4.0625 3.125 C-0.89335797 2.35785318 -0.89335797 2.35785318 0 0 Z " fill="#2EA0A0" transform="translate(144,84)"/>
<path d="M0 0 C0.66 1.32 1.32 2.64 2 4 C2.33 3.01 2.66 2.02 3 1 C3.66 1.33 4.32 1.66 5 2 C4.75 4.375 4.75 4.375 4 7 C2.02 7.99 2.02 7.99 0 9 C0 6.03 0 3.06 0 0 Z " fill="#38898A" transform="translate(136,36)"/>
<path d="M0 0 C0.66 0.33 1.32 0.66 2 1 C1.09515208 2.15518918 0.1755794 3.29885406 -0.75 4.4375 C-1.26046875 5.07558594 -1.7709375 5.71367187 -2.296875 6.37109375 C-4.19667629 8.18810554 -5.43586908 8.60423197 -8 9 C-5.68462045 5.27885429 -3.71420527 2.38770339 0 0 Z " fill="#DDF7F8" transform="translate(38,17)"/>
<path d="M0 0 C2.1875 0.3125 2.1875 0.3125 4 1 C2.35 2.98 0.7 4.96 -1 7 C-1.66 5.68 -2.32 4.36 -3 3 C-1.75 1.4375 -1.75 1.4375 0 0 Z " fill="#459C99" transform="translate(33,17)"/>
<path d="M0 0 C1.32 0.66 2.64 1.32 4 2 C4 4.31 4 6.62 4 9 C1.4375 6.75 1.4375 6.75 -1 4 C-0.8125 1.6875 -0.8125 1.6875 0 0 Z " fill="#32938E" transform="translate(20,39)"/>
<path d="M0 0 C0.91058531 3.07322544 1.08886184 5.80097361 1 9 C0.01 9 -0.98 9 -2 9 C-2.6875 6.75 -2.6875 6.75 -3 4 C-1.5625 1.6875 -1.5625 1.6875 0 0 Z " fill="#2D9490" transform="translate(9,91)"/>
<path d="M0 0 C1.125 3.75 1.125 3.75 0 6 C-0.06950541 7.54023996 -0.08452357 9.08334988 -0.0625 10.625 C-0.05347656 11.44226562 -0.04445312 12.25953125 -0.03515625 13.1015625 C-0.02355469 13.72804688 -0.01195312 14.35453125 0 15 C-2 13 -2 13 -2.265625 10.72265625 C-2.26046875 9.84480469 -2.2553125 8.96695313 -2.25 8.0625 C-2.25515625 7.18722656 -2.2603125 6.31195313 -2.265625 5.41015625 C-2 3 -2 3 0 0 Z " fill="#DC2916" transform="translate(47,39)"/>
<path d="M0 0 C1.32 0.66 2.64 1.32 4 2 C3.34 4.97 2.68 7.94 2 11 C1.67 11 1.34 11 1 11 C0.63890458 9.35567294 0.28629924 7.7094792 -0.0625 6.0625 C-0.25972656 5.14597656 -0.45695312 4.22945312 -0.66015625 3.28515625 C-0.77230469 2.53105469 -0.88445313 1.77695312 -1 1 C-0.67 0.67 -0.34 0.34 0 0 Z " fill="#FABC85" transform="translate(43,38)"/>
<path d="M0 0 C0.66 0.33 1.32 0.66 2 1 C-1.07999946 4.67230705 -3.2482602 5.56802365 -8 6 C-3.375 1.125 -3.375 1.125 0 0 Z " fill="#F9DA9C" transform="translate(52,24)"/>
<path d="M0 0 C1.125 1.75 1.125 1.75 2 4 C1.125 6.25 1.125 6.25 0 8 C-0.99 7.67 -1.98 7.34 -3 7 C-2.01 4.69 -1.02 2.38 0 0 Z " fill="#47989E" transform="translate(148,125)"/>
<path d="M0 0 C2.3129482 2.3129482 2.49580975 3.47904875 3.125 6.625 C3.29257812 7.44226563 3.46015625 8.25953125 3.6328125 9.1015625 C3.81457031 10.04128906 3.81457031 10.04128906 4 11 C2 10 2 10 0 8 C-0.36933645 5.24627091 -0.18336678 2.79634339 0 0 Z " fill="#51A8AB" transform="translate(57,116)"/>
<path d="M0 0 C0.66 0 1.32 0 2 0 C2.125 3.375 2.125 3.375 2 7 C1.34 7.66 0.68 8.32 0 9 C-0.12375 8.195625 -0.2475 7.39125 -0.375 6.5625 C-0.684375 5.2940625 -0.684375 5.2940625 -1 4 C-1.66 3.67 -2.32 3.34 -3 3 C-2.01 2.67 -1.02 2.34 0 2 C0 1.34 0 0.68 0 0 Z " fill="#C6EDED" transform="translate(102,116)"/>
<path d="M0 0 C2.89932357 2.39509338 3.50168276 4.31245243 4 8 C2.0625 7.3125 2.0625 7.3125 0 6 C-0.8125 3.4375 -0.8125 3.4375 -1 1 C-0.67 0.67 -0.34 0.34 0 0 Z " fill="#EAF7FA" transform="translate(13,66)"/>
<path d="M0 0 C0.33 1.32 0.66 2.64 1 4 C0.38125 4.268125 -0.2375 4.53625 -0.875 4.8125 C-3.2995233 5.95556848 -3.2995233 5.95556848 -5 9 C-5.66 8.67 -6.32 8.34 -7 8 C-4.69 5.36 -2.38 2.72 0 0 Z " fill="#FAEEDB" transform="translate(121,46)"/>
<path d="M0 0 C0.33 0 0.66 0 1 0 C1.125 2.375 1.125 2.375 1 5 C0.34 5.66 -0.32 6.32 -1 7 C-3.125 6.625 -3.125 6.625 -5 6 C-3.35830472 3.97945196 -1.69088222 1.97956942 0 0 Z " fill="#419D9B" transform="translate(144,133)"/>
<path d="M0 0 C0.66 0.33 1.32 0.66 2 1 C0.875 2.9375 0.875 2.9375 -1 5 C-4.1875 5.75 -4.1875 5.75 -7 6 C-4.74259377 3.66475218 -2.7194239 1.81294927 0 0 Z " fill="#E02710" transform="translate(55,33)"/>
<path d="M0 0 C0.33 0 0.66 0 1 0 C1.66 3.3 2.32 6.6 3 10 C2.01 9.67 1.02 9.34 0 9 C0 8.34 0 7.68 0 7 C-0.66 6.67 -1.32 6.34 -2 6 C-1.34 6 -0.68 6 0 6 C0 4.02 0 2.04 0 0 Z " fill="#F8CE9D" transform="translate(43,44)"/>
<path d="M0 0 C2.97 0.495 2.97 0.495 6 1 C6.33 1.99 6.66 2.98 7 4 C4.625 3.6875 4.625 3.6875 2 3 C1.34 2.01 0.68 1.02 0 0 Z " fill="#42AFB2" transform="translate(22,72)"/>
<path d="M0 0 C0 1.32 0 2.64 0 4 C-1.65 4 -3.3 4 -5 4 C-5 3.01 -5 2.02 -5 1 C-2 0 -2 0 0 0 Z " fill="#38BCBC" transform="translate(14,59)"/>
<path d="M0 0 C1.32 0 2.64 0 4 0 C4 0.99 4 1.98 4 3 C4.66 3 5.32 3 6 3 C6 4.65 6 6.3 6 8 C3.87961365 5.38485683 1.86908256 2.80362384 0 0 Z " fill="#F8BE82" transform="translate(110,36)"/>
</svg>
